<?xml version="1.0" encoding="utf-8"?>
<!-- Generator: Adobe Illustrator 19.0.0, SVG Export Plug-In . SVG Version: 6.00 Build 0)  -->
<svg version="1.1" id="Layer_1" xmlns="http://www.w3.org/2000/svg" xmlns:xlink="http://www.w3.org/1999/xlink" x="0px" y="0px"
	 viewBox="0 0 792 612" style="enable-background:new 0 0 792 612;" xml:space="preserve">
<style type="text/css">
	.st0{fill:#039466;}
	.st1{fill:#00AE76;}
	.st2{fill:#7E643B;}
	.st3{fill:#987745;}
	.st4{fill:#367BA2;}
	.st5{fill:#4496C5;}
	.st6{fill:#E68560;}
	.st7{fill:#F6926C;}
	.st8{fill:#FEE783;}
	.st9{fill:#E7D174;}
	.st10{fill:#65BE67;}
	.st11{fill:#7BC46E;}
	.st12{fill:#DF815E;}
	.st13{fill:#E0E1E0;}
	.st14{fill:#FFFFFF;}
	.st15{fill:#EBEBEB;}
	.st16{fill:#E07D5A;}
	.st17{fill:#D7D6D6;}
	.st18{fill:#4C9543;}
	.st19{fill:#59AE46;}
	.st20{fill:#585245;}
	.st21{fill:#66686A;}
	.st22{fill:#A8AAAD;}
	.st23{fill:#A96F6B;}
	.st24{fill:#336F92;}
	.st25{fill:#424143;}
	.st26{fill:#FEEC85;}
	.st27{fill:#2E2D2E;}
	.st28{fill:#323233;}
	.st29{fill:#373638;}
	.st30{fill:#EBC697;}
	.st31{fill:#DBB88C;}
	.st32{fill:#676143;}
	.st33{fill:#7B7350;}
	.st34{fill:#CC655A;}
	.st35{fill:#FFD8A4;}
	.st36{fill:#F37B6F;}
	.st37{fill:#E7E7E7;}
	.st38{fill:#C8C8C9;}
	.st39{fill:#A0DBF0;}
	.st40{fill:#AEE1F7;}
	.st41{fill:#CC635B;}
	.st42{fill:#E76E64;}
	.st43{fill:#ABABAC;}
	.st44{fill:#D3D4D5;}
	.st45{fill:#ECD388;}
	.st46{fill:#FFE594;}
	.st47{fill:#89B1C0;}
	.st48{fill:#7698A5;}
	.st49{fill:#F3776B;}
</style>
<g id="XMLID_1134_">
	<g id="XMLID_1233_">
		<polygon id="XMLID_432_" class="st0" points="523.7,291.7 529.2,241.7 500.5,236 497.9,236.5 507.1,299.4 		"/>
	</g>
	<g id="XMLID_1231_">
		<polygon id="XMLID_431_" class="st1" points="481.9,310.8 507.1,299.4 497.9,236.5 468.2,242.9 		"/>
	</g>
	<g id="XMLID_1229_">
		<polygon id="XMLID_430_" class="st0" points="366.5,236 365.4,259.2 431.7,332.4 438.2,329.7 434.2,250.1 		"/>
	</g>
	<g id="XMLID_1227_">
		<polygon id="XMLID_429_" class="st1" points="458.3,245 434.2,250.1 438.2,329.7 471.4,315.4 		"/>
	</g>
	<g id="XMLID_1225_">
		<polygon id="XMLID_428_" class="st1" points="349.8,239.5 365.4,259.2 366.5,236 		"/>
	</g>
	<g id="XMLID_1223_">
		<polygon id="XMLID_427_" class="st2" points="545.1,287 578.6,282 570.5,249.9 548.4,245.6 		"/>
	</g>
	<g id="XMLID_1221_">
		<polygon id="XMLID_426_" class="st3" points="647,271.6 634.5,235.9 571,250 570.5,249.9 578.6,282 		"/>
	</g>
	<g id="XMLID_1219_">
		<polygon id="XMLID_425_" class="st4" points="203.7,353.9 197.5,378.7 215.4,484.7 261.3,491.7 270.8,428.3 234.5,359.1 		"/>
	</g>
	<g id="XMLID_1217_">
		<polygon id="XMLID_424_" class="st5" points="306.5,484.7 270.8,428.3 261.3,491.7 		"/>
	</g>
	<g id="XMLID_1215_">
		<polygon id="XMLID_423_" class="st5" points="194.6,352.4 197.5,378.7 203.7,353.9 		"/>
	</g>
	<g id="XMLID_1213_">
		<polygon id="XMLID_422_" class="st0" points="214.2,311.4 205.6,346 230.4,350.3 		"/>
	</g>
	<g id="XMLID_1211_">
		<polygon id="XMLID_421_" class="st1" points="192.2,244.1 160.6,250.3 131.9,333.1 205.6,346 214.2,311.4 		"/>
	</g>
	<g id="XMLID_1209_">
		<polygon id="XMLID_420_" class="st0" points="200.6,482.4 190,420.5 187,420.8 172.8,478.1 		"/>
	</g>
	<g id="XMLID_1207_">
		<polygon id="XMLID_419_" class="st1" points="76.4,492.6 172.4,478 172.8,478.1 187,420.8 98.5,429 		"/>
	</g>
	<g id="XMLID_1205_">
		<polygon id="XMLID_418_" class="st3" points="129.1,340.9 101.2,421.2 189,413.1 182.2,350.2 		"/>
	</g>
	<g id="XMLID_1203_">
		<polygon id="XMLID_417_" class="st6" points="282.2,246.9 237.6,316.1 254.9,354.3 284.3,337.9 297.4,250.2 		"/>
	</g>
	<g id="XMLID_1201_">
		<polygon id="XMLID_416_" class="st7" points="366.4,288.7 364,285.9 363.8,290.3 		"/>
	</g>
	<g id="XMLID_1199_">
		<polygon id="XMLID_415_" class="st7" points="297.4,250.2 284.3,337.9 363.8,290.3 364,285.9 330.3,243.5 		"/>
	</g>
	<g id="XMLID_1197_">
		<polygon id="XMLID_414_" class="st1" points="232.5,236.1 210.6,240.5 222.6,277.5 232.9,236.2 		"/>
	</g>
	<g id="XMLID_1195_">
		<polygon id="XMLID_413_" class="st0" points="272.6,244.9 232.9,236.2 222.6,277.5 233.2,305.4 		"/>
	</g>
	<g id="XMLID_1193_">
		<polygon id="XMLID_412_" class="st8" points="276.1,393.1 360.3,361.3 363.3,300.8 282.7,348.4 		"/>
	</g>
	<g id="XMLID_1191_">
		<polygon id="XMLID_411_" class="st8" points="258.6,361.8 275.2,393.4 276.1,393.1 282.7,348.4 		"/>
	</g>
	<g id="XMLID_1189_">
		<polygon id="XMLID_410_" class="st9" points="413.6,340 372,295.2 363.3,300.8 360.3,361.3 		"/>
	</g>
	<g id="XMLID_1187_">
		<polygon id="XMLID_409_" class="st10" points="386.1,367.7 441.1,387.5 439,346.3 		"/>
	</g>
	<g id="XMLID_1185_">
		<polygon id="XMLID_408_" class="st11" points="441.1,387.5 502.7,408.7 514.5,350.5 509.5,316 439,346.3 		"/>
	</g>
	<g id="XMLID_1183_">
		<polygon id="XMLID_407_" class="st11" points="521,310.9 509.5,316 514.5,350.5 		"/>
	</g>
	<g id="XMLID_1181_">
		<polygon id="XMLID_406_" class="st1" points="630.5,489.9 619,443.9 590.6,484.2 		"/>
	</g>
	<g id="XMLID_1179_">
		<polygon id="XMLID_405_" class="st1" points="631.2,490 718.7,475.5 705.8,438.8 625.5,433.9 619,443.9 630.5,489.9 		"/>
	</g>
	<g id="XMLID_1177_">
		<polygon id="XMLID_404_" class="st8" points="510.6,480.6 533,476.9 525.8,427.6 523.1,427.5 		"/>
	</g>
	<g id="XMLID_1175_">
		<polygon id="XMLID_403_" class="st9" points="536.6,476.3 576.5,482.1 611.3,433 525.8,427.6 533,476.9 		"/>
	</g>
	<g id="XMLID_1173_">
		<polygon id="XMLID_402_" class="st0" points="526,413.6 612.8,419.1 602.6,378.2 533.5,373.6 		"/>
	</g>
	<g id="XMLID_1171_">
		<polygon id="XMLID_401_" class="st1" points="700.8,424.6 686.4,383.7 602.6,378.2 612.8,419.1 		"/>
	</g>
	<g id="XMLID_1169_">
		<polygon id="XMLID_400_" class="st4" points="534.7,366.1 600.7,370.6 582.1,296.3 543.5,302 		"/>
	</g>
	<g id="XMLID_1167_">
		<polygon id="XMLID_399_" class="st5" points="683.8,376.1 652.1,285.9 582.1,296.3 600.7,370.6 		"/>
	</g>
	<g id="XMLID_1165_">
		<polygon id="XMLID_398_" class="st1" points="330.3,481 354.5,477.2 359.4,378 282.7,406.5 		"/>
	</g>
	<g id="XMLID_1163_">
		<polygon id="XMLID_397_" class="st0" points="393.3,483 427.8,399 364.3,376.1 359.4,378 354.5,477.2 		"/>
	</g>
	<g id="XMLID_1161_">
		<polygon id="XMLID_396_" class="st7" points="482.9,485 499.3,423.3 441.9,403.9 446.3,490.8 		"/>
	</g>
	<g id="XMLID_1159_">
		<polygon id="XMLID_395_" class="st12" points="406.8,485 446.3,490.8 441.9,403.9 439.4,403.1 		"/>
	</g>
	<g id="XMLID_1157_">
		<polygon id="XMLID_394_" class="st13" points="590.6,484.2 619,443.9 612.8,419.1 526,413.6 533.5,373.6 602.6,378.2 600.7,370.6 
			534.7,366.1 543.5,302 582.1,296.3 578.6,282 545.1,287 548.4,245.6 570.5,249.9 567.2,236.4 498.5,222.5 495.9,223.1 
			497.9,236.5 500.5,236 529.2,241.7 523.7,291.7 507.1,299.4 509.5,316 521,310.9 514.5,350.5 525.8,427.6 611.3,433 576.5,482.1 
			536.6,476.3 533,476.9 535,490.4 538.6,489.8 633.9,503.3 630.5,489.9 		"/>
	</g>
	<g id="XMLID_1155_">
		<polygon id="XMLID_393_" class="st14" points="510.6,480.6 523.1,427.5 525.8,427.6 514.5,350.5 502.7,408.7 441.1,387.5 
			441.9,403.9 499.3,423.3 482.9,485 446.3,490.8 446.9,504.3 535,490.4 533,476.9 		"/>
	</g>
	<g id="XMLID_1153_">
		<polygon id="XMLID_392_" class="st14" points="567.6,236.5 567.2,236.4 570.5,249.9 571,250 634.5,235.9 647,271.6 578.6,282 
			582.1,296.3 652.1,285.9 683.8,376.1 600.7,370.6 602.6,378.2 686.4,383.7 700.8,424.6 612.8,419.1 619,443.9 625.5,433.9 
			705.8,438.8 718.7,475.5 631.2,490 630.5,489.9 633.9,503.3 634.6,503.4 746.2,485.2 645.5,218.8 		"/>
	</g>
	<g id="XMLID_1151_">
		<polygon id="XMLID_391_" class="st13" points="406.8,485 439.4,403.1 441.9,403.9 441.1,387.5 386.1,367.7 439,346.3 438.2,329.7 
			431.7,332.4 365.4,259.2 364,285.9 366.4,288.7 363.8,290.3 363.3,300.8 372,295.2 413.6,340 360.3,361.3 359.4,378 364.3,376.1 
			427.8,399 393.3,483 354.5,477.2 353.8,490.7 446.9,504.3 446.3,490.8 		"/>
	</g>
	<g id="XMLID_1149_">
		<polygon id="XMLID_390_" class="st13" points="272.6,244.9 233.2,305.4 222.6,277.5 214.2,311.4 230.4,350.3 205.6,346 
			203.7,353.9 234.5,359.1 270.8,428.3 276.1,393.1 275.2,393.4 258.6,361.8 282.7,348.4 284.3,337.9 254.9,354.3 237.6,316.1 
			282.2,246.9 297.4,250.2 299.5,236.6 236.2,222.6 232.9,236.2 		"/>
	</g>
	<g id="XMLID_1147_">
		<polygon id="XMLID_389_" class="st14" points="330.3,243.5 364,285.9 365.4,259.2 349.8,239.5 366.5,236 367.2,222.5 299.5,236.6 
			297.4,250.2 		"/>
	</g>
	<g id="XMLID_1145_">
		<polygon id="XMLID_388_" class="st14" points="282.7,348.4 363.3,300.8 363.8,290.3 284.3,337.9 		"/>
	</g>
	<g id="XMLID_1143_">
		<polygon id="XMLID_387_" class="st14" points="458.3,245 471.4,315.4 438.2,329.7 439,346.3 509.5,316 507.1,299.4 481.9,310.8 
			468.2,242.9 497.9,236.5 495.9,223.1 433.5,236.6 434.2,250.1 		"/>
	</g>
	<g id="XMLID_1141_">
		<polygon id="XMLID_386_" class="st14" points="434.2,250.1 433.5,236.6 367.2,222.5 366.5,236 		"/>
	</g>
	<g id="XMLID_1139_">
		<polygon id="XMLID_385_" class="st14" points="330.3,481 282.7,406.5 359.4,378 360.3,361.3 276.1,393.1 270.8,428.3 306.5,484.7 
			261.3,491.7 259.3,505.3 353.8,490.7 354.5,477.2 		"/>
	</g>
	<g id="XMLID_1137_">
		<polygon id="XMLID_384_" class="st14" points="172.4,478 76.4,492.6 98.5,429 187,420.8 189,413.1 101.2,421.2 129.1,340.9 
			182.2,350.2 189,413.1 197.5,378.7 194.6,352.4 203.7,353.9 205.6,346 131.9,333.1 160.6,250.3 192.2,244.1 214.2,311.4 
			222.6,277.5 210.6,240.5 232.5,236.1 232.9,236.2 236.2,222.6 235.9,222.5 146.5,240.4 45.8,510 169,491.6 169.5,491.6 
			172.8,478.1 		"/>
	</g>
	<g id="XMLID_1135_">
		<polygon id="XMLID_383_" class="st15" points="215.4,484.7 197.5,378.7 189,413.1 187,420.8 190,420.5 200.6,482.4 172.8,478.1 
			169.5,491.6 259.3,505.3 261.3,491.7 		"/>
	</g>
</g>
<g id="XMLID_1125_">
	<g id="XMLID_1132_">
		<path id="XMLID_382_" class="st14" d="M476.8,74.6c-46.8,0-84.9,38.1-84.9,84.8c0,8.1,1.1,16,3.4,23.7l81.5,145.2L550,202.4
			l8.3-19.2c2.2-7.7,3.4-15.6,3.4-23.7C561.6,112.6,523.6,74.6,476.8,74.6z"/>
	</g>
	<g id="XMLID_1130_">
		<path id="XMLID_381_" class="st16" d="M548.8,159.4c0-39.8-32.3-72.1-72.1-72.1v215.5l62.1-106.9h0
			C545.2,185.2,548.8,172.8,548.8,159.4z"/>
	</g>
	<g id="XMLID_1128_">
		<path id="XMLID_380_" class="st7" d="M404.7,159.4c0,13.3,3.6,25.8,9.9,36.5h0l62.1,106.9V87.4C437,87.4,404.7,119.6,404.7,159.4z
			"/>
	</g>
	<g id="XMLID_1126_">
		<path id="XMLID_379_" class="st14" d="M521,159.4c0,24.4-19.8,44.2-44.2,44.2c-24.4,0-44.2-19.8-44.2-44.2
			c0-24.4,19.8-44.2,44.2-44.2C501.2,115.3,521,135,521,159.4z"/>
	</g>
</g>
<g id="XMLID_1113_">
	<g id="XMLID_1123_">
		
			<ellipse id="XMLID_378_" transform="matrix(0.9867 -0.1628 0.1628 0.9867 -46.0388 32.6044)" class="st14" cx="175.9" cy="297.2" rx="18.9" ry="10.5"/>
	</g>
	<g id="XMLID_1121_">
		<path id="XMLID_377_" class="st17" d="M185.7,294c0.3,2-3.9,4.3-9.5,5.2c-5.6,0.9-10.3,0.1-10.7-1.9c-0.3-2,3.9-4.3,9.5-5.2
			C180.6,291.2,185.4,292,185.7,294z"/>
	</g>
	<g id="XMLID_1114_">
		<g id="XMLID_1119_">
			<path id="XMLID_376_" class="st18" d="M189.3,209.9c-2.2,2-4.8,3.6-7.6,4.8c-0.1,4.3-3.2,8-7.6,8.8c-4.9,0.8-9.6-2.5-10.4-7.5
				c0-0.1,0-0.2,0-0.2c-9.9-2.8-17.8-11.1-19.6-21.9c0-0.1,0-0.3,0-0.4c-1.7,2-3,4.4-3.8,6.9c-0.7-0.1-1.5-0.1-2.3,0.1
				c-5.3,0.9-8.9,5.9-8,11.1c0.5,3.1,2.5,5.6,5,6.9c-2.3,2.9-3.5,6.7-2.8,10.6c1.2,7.3,8.1,12.3,15.4,11.1c3.7-0.6,6.7-2.6,8.7-5.4
				c2.3,2.1,5.5,3.2,8.7,2.6c3.8-0.6,6.8-3.3,8.1-6.7c2.3,1.2,4.9,1.8,7.6,1.3c6.6-1.1,11.1-7.3,10-13.9c-0.4-2.3-1.4-4.3-2.9-6
				C188.5,211.4,188.9,210.7,189.3,209.9z"/>
		</g>
		<g id="XMLID_1117_">
			<path id="XMLID_375_" class="st19" d="M175.3,190.5c-0.6,0.1-1.2,0.2-1.7,0.4c-4.5-3.9-10.6-5.8-16.9-4.8
				c-5.2,0.9-9.5,3.6-12.6,7.3c0,0.1,0,0.3,0,0.4c1.8,10.8,9.7,19.1,19.6,21.9c0,0.1,0,0.2,0,0.2c0.8,4.9,5.5,8.3,10.4,7.5
				c4.4-0.7,7.5-4.5,7.6-8.8c2.8-1.2,5.4-2.8,7.6-4.8c1.3-2.5,1.9-5.4,1.4-8.4C189.5,194.2,182.6,189.3,175.3,190.5z"/>
		</g>
		<g id="XMLID_1115_">
			<path id="XMLID_374_" class="st20" d="M176.8,295.4l-7.8,1.3l2.5-6.3c-2.7-29.7-8.3-50.3-8.3-50.3l-11.5-8.2l2.7-3.8l11.1,8.3
				l8.4-11.5l3.8,2.7l-8.2,11.5c0,0,1.4,21.3,8.3,50.3l4.4,5.1L176.8,295.4"/>
		</g>
	</g>
</g>
<g id="XMLID_1101_">
	<g id="XMLID_1111_">
		<path id="XMLID_373_" class="st14" d="M350.8,412.3c1.2,7.3-8.4,15-21.5,17.1c-13.1,2.2-24.7-2-25.9-9.3
			c-1.2-7.3,8.4-15,21.5-17.1C338,400.8,349.6,405,350.8,412.3z"/>
	</g>
	<g id="XMLID_1109_">
		<path id="XMLID_372_" class="st17" d="M339.6,412.2c0.4,2.5-5,5.5-12,6.7c-7.1,1.2-13.1,0.1-13.6-2.4c-0.4-2.5,5-5.5,12-6.7
			C333.1,408.6,339.2,409.7,339.6,412.2z"/>
	</g>
	<g id="XMLID_1102_">
		<g id="XMLID_1107_">
			<path id="XMLID_371_" class="st18" d="M344.2,305.3c-2.8,2.5-6.1,4.6-9.7,6.1c-0.1,5.5-4,10.2-9.6,11.2c-6.3,1-12.2-3.2-13.2-9.5
				c0-0.1,0-0.2,0-0.3c-12.6-3.6-22.7-14.1-24.9-27.8c0-0.2,0-0.4-0.1-0.5c-2.1,2.6-3.8,5.5-4.8,8.8c-0.9-0.1-1.9-0.1-2.9,0.1
				c-6.7,1.1-11.2,7.4-10.1,14.2c0.6,3.9,3.1,7.1,6.4,8.8c-3,3.7-4.4,8.5-3.6,13.5c1.5,9.3,10.3,15.6,19.6,14.1
				c4.6-0.8,8.5-3.3,11.1-6.9c2.9,2.7,6.9,4.1,11.1,3.4c4.9-0.8,8.6-4.2,10.2-8.5c2.9,1.5,6.2,2.2,9.7,1.7c8.4-1.4,14-9.3,12.7-17.7
				c-0.5-2.9-1.8-5.5-3.6-7.6C343.1,307.3,343.7,306.3,344.2,305.3z"/>
		</g>
		<g id="XMLID_1105_">
			<path id="XMLID_370_" class="st19" d="M326.4,280.6c-0.8,0.1-1.5,0.3-2.2,0.5c-5.7-4.9-13.5-7.4-21.5-6c-6.6,1.1-12.1,4.5-16,9.3
				c0,0.2,0,0.3,0.1,0.5c2.3,13.8,12.3,24.3,24.9,27.8c0,0.1,0,0.2,0,0.3c1,6.3,7,10.5,13.2,9.5c5.6-0.9,9.5-5.7,9.6-11.2
				c3.6-1.5,6.9-3.6,9.7-6.1c1.7-3.2,2.4-6.9,1.7-10.7C344.4,285.4,335.7,279.1,326.4,280.6z"/>
		</g>
		<g id="XMLID_1103_">
			<path id="XMLID_369_" class="st20" d="M328.3,414l-9.9,1.6l3.2-7.9c-3.5-37.7-10.5-63.9-10.5-63.9l-14.6-10.5l3.5-4.8L314,339
				l10.7-14.6l4.8,3.5L319,342.5c0,0,1.7,27.1,10.5,63.9l5.6,6.5L328.3,414"/>
		</g>
	</g>
</g>
<g id="XMLID_1089_">
	<g id="XMLID_1099_">
		<path id="XMLID_368_" class="st14" d="M589.6,395.2c-0.8,6.4-10.7,10.6-22.3,9.2c-11.6-1.4-20.3-7.7-19.6-14.1
			c0.8-6.4,10.7-10.6,22.3-9.2C581.6,382.5,590.4,388.8,589.6,395.2z"/>
	</g>
	<g id="XMLID_1097_">
		<path id="XMLID_367_" class="st17" d="M580.2,392.4c-0.3,2.2-5.5,3.4-11.8,2.7c-6.2-0.7-11.1-3.1-10.8-5.3
			c0.3-2.2,5.5-3.4,11.8-2.7C575.6,387.8,580.5,390.2,580.2,392.4z"/>
	</g>
	<g id="XMLID_1090_">
		<g id="XMLID_1095_">
			<path id="XMLID_366_" class="st18" d="M610.1,303.5c-3,1.4-6.3,2.4-9.7,2.8c-1.4,4.6-5.9,7.6-10.8,7.1c-5.5-0.7-9.5-5.7-8.9-11.2
				c0-0.1,0-0.2,0.1-0.3c-9.8-6.1-15.7-17.4-14.2-29.5c0-0.2,0.1-0.3,0.1-0.5c-2.4,1.7-4.5,3.7-6.2,6.2c-0.8-0.3-1.6-0.5-2.5-0.6
				c-5.9-0.7-11.3,3.5-12,9.5c-0.4,3.5,0.9,6.7,3.2,9c-3.4,2.4-5.8,6.1-6.3,10.5c-1,8.2,4.9,15.6,13.1,16.6c4.1,0.5,8-0.7,11-3.1
				c1.8,3,4.9,5.1,8.6,5.5c4.3,0.5,8.3-1.4,10.7-4.7c2.1,2,4.7,3.4,7.8,3.8c7.4,0.9,14.1-4.4,15-11.8c0.3-2.6-0.2-5.1-1.2-7.3
				C608.7,304.8,609.4,304.2,610.1,303.5z"/>
		</g>
		<g id="XMLID_1093_">
			<path id="XMLID_365_" class="st19" d="M601,278.3c-0.7-0.1-1.3-0.1-2-0.1c-3.6-5.5-9.6-9.5-16.7-10.3c-5.8-0.7-11.3,0.9-15.8,3.9
				c0,0.2-0.1,0.3-0.1,0.5c-1.4,12.2,4.5,23.5,14.2,29.5c0,0.1-0.1,0.2-0.1,0.3c-0.7,5.5,3.3,10.6,8.9,11.2
				c4.9,0.6,9.4-2.5,10.8-7.1c3.4-0.4,6.7-1.3,9.7-2.8c2.2-2.3,3.7-5.2,4.1-8.6C615.1,286.7,609.3,279.2,601,278.3z"/>
		</g>
		<g id="XMLID_1091_">
			<path id="XMLID_364_" class="st20" d="M570.3,391.2l-8.7-1l4.6-5.9c6.2-32.6,6.7-56.4,6.7-56.4l-9.8-12.4l4.1-3.2l9.3,12.3
				l12.5-9.7l3.2,4.1l-12.4,9.8c0,0-5.1,23.2-6.7,56.4l3.1,6.8L570.3,391.2"/>
		</g>
	</g>
</g>
<g id="XMLID_785_">
	<g id="XMLID_788_">
		<g id="XMLID_989_">
			<g id="XMLID_1087_">
				
					<rect id="XMLID_363_" x="106.9" y="440.6" transform="matrix(-0.9921 0.1253 -0.1253 -0.9921 272.8688 868.4566)" class="st21" width="4.5" height="4.5"/>
			</g>
			<g id="XMLID_1085_">
				
					<rect id="XMLID_362_" x="115.4" y="459.4" transform="matrix(-0.9922 0.125 -0.125 -0.9922 292.0554 904.9445)" class="st21" width="4.5" height="4.5"/>
			</g>
			<g id="XMLID_1083_">
				
					<rect id="XMLID_361_" x="107.7" y="447.1" transform="matrix(-0.9921 0.1252 -0.1252 -0.9921 275.3041 881.3695)" class="st21" width="4.5" height="4.5"/>
			</g>
			<g id="XMLID_1081_">
				
					<rect id="XMLID_360_" x="108.5" y="453.6" transform="matrix(-0.9921 0.1251 -0.1251 -0.9921 277.7203 894.2943)" class="st21" width="4.5" height="4.5"/>
			</g>
			<g id="XMLID_1079_">
				
					<rect id="XMLID_359_" x="109.4" y="460.2" transform="matrix(-0.9921 0.1251 -0.1251 -0.9921 280.1831 907.1968)" class="st21" width="4.5" height="4.5"/>
			</g>
			<g id="XMLID_1077_">
				
					<rect id="XMLID_358_" x="103.4" y="412.7" transform="matrix(-0.9921 0.1254 -0.1254 -0.9921 262.4387 813.368)" class="st21" width="4.5" height="4.5"/>
			</g>
			<g id="XMLID_1075_">
				
					<rect id="XMLID_357_" x="105" y="425.8" transform="matrix(-0.9921 0.1256 -0.1256 -0.9921 267.4239 839.154)" class="st21" width="4.5" height="4.5"/>
			</g>
			<g id="XMLID_1073_">
				
					<rect id="XMLID_356_" x="104.2" y="419.2" transform="matrix(-0.9921 0.1255 -0.1255 -0.9921 264.9188 826.2648)" class="st21" width="4.5" height="4.5"/>
			</g>
			<g id="XMLID_1071_">
				
					<rect id="XMLID_355_" x="105.8" y="432.3" transform="matrix(-0.9921 0.1254 -0.1254 -0.9921 269.8244 852.0825)" class="st21" width="4.5" height="4.5"/>
			</g>
			<g id="XMLID_1069_">
				
					<rect id="XMLID_354_" x="101.7" y="447.9" transform="matrix(-0.9921 0.1254 -0.1254 -0.9921 263.4741 883.6104)" class="st21" width="4.5" height="4.5"/>
			</g>
			<g id="XMLID_1067_">
				
					<rect id="XMLID_353_" x="102.5" y="454.4" transform="matrix(-0.9922 0.1246 -0.1246 -0.9922 265.5804 896.6464)" class="st21" width="4.5" height="4.5"/>
			</g>
			<g id="XMLID_1065_">
				
					<rect id="XMLID_352_" x="100.9" y="441.3" transform="matrix(-0.9922 0.1245 -0.1245 -0.9922 260.6241 870.8488)" class="st21" width="4.5" height="4.5"/>
			</g>
			<g id="XMLID_1063_">
				
					<rect id="XMLID_351_" x="103.3" y="460.9" transform="matrix(-0.9921 0.1253 -0.1253 -0.9921 268.3656 909.4336)" class="st21" width="4.5" height="4.5"/>
			</g>
			<g id="XMLID_1061_">
				
					<rect id="XMLID_350_" x="99" y="426.5" transform="matrix(-0.9921 0.1255 -0.1255 -0.9921 255.4557 841.4464)" class="st21" width="4.5" height="4.5"/>
			</g>
			<g id="XMLID_1059_">
				
					<rect id="XMLID_349_" x="98.2" y="420" transform="matrix(-0.9921 0.1254 -0.1254 -0.9921 252.9524 828.556)" class="st21" width="4.5" height="4.5"/>
			</g>
			<g id="XMLID_1057_">
				
					<rect id="XMLID_348_" x="99.8" y="433.1" transform="matrix(-0.9922 0.125 -0.125 -0.9922 257.7181 854.426)" class="st21" width="4.5" height="4.5"/>
			</g>
			<g id="XMLID_1055_">
				
					<rect id="XMLID_347_" x="97.3" y="413.5" transform="matrix(-0.9921 0.1255 -0.1255 -0.9921 250.5491 815.629)" class="st21" width="4.5" height="4.5"/>
			</g>
			<g id="XMLID_1053_">
				
					<rect id="XMLID_346_" x="111.9" y="431.5" transform="matrix(-0.9921 0.1256 -0.1256 -0.9921 281.7837 849.7902)" class="st21" width="4.5" height="4.5"/>
			</g>
			<g id="XMLID_1051_">
				
					<rect id="XMLID_345_" x="117.9" y="430.8" transform="matrix(-0.9921 0.1251 -0.1251 -0.9921 293.4899 847.6029)" class="st21" width="4.5" height="4.5"/>
			</g>
			<g id="XMLID_1049_">
				
					<rect id="XMLID_344_" x="117.1" y="424.2" transform="matrix(-0.9921 0.1251 -0.1251 -0.9921 291.0327 834.6981)" class="st21" width="4.5" height="4.5"/>
			</g>
			<g id="XMLID_1047_">
				
					<rect id="XMLID_343_" x="118.9" y="439" transform="matrix(-0.9921 0.1254 -0.1254 -0.9921 296.7662 863.8865)" class="st21" width="4.5" height="4.5"/>
			</g>
			<g id="XMLID_1045_">
				
					<rect id="XMLID_342_" x="119.8" y="445.6" transform="matrix(-0.9921 0.1252 -0.1252 -0.9921 299.114 876.8372)" class="st21" width="4.5" height="4.5"/>
			</g>
			<g id="XMLID_1043_">
				
					<rect id="XMLID_341_" x="116.2" y="417.7" transform="matrix(-0.9921 0.1251 -0.1251 -0.9921 288.6038 821.7783)" class="st21" width="4.5" height="4.5"/>
			</g>
			<g id="XMLID_1041_">
				
					<rect id="XMLID_340_" x="115.4" y="411.2" transform="matrix(-0.9922 0.1247 -0.1247 -0.9922 285.9743 808.9459)" class="st21" width="4.5" height="4.5"/>
			</g>
			<g id="XMLID_1039_">
				
					<rect id="XMLID_339_" x="120.6" y="452.1" transform="matrix(-0.9921 0.1252 -0.1252 -0.9921 301.5943 889.7373)" class="st21" width="4.5" height="4.5"/>
			</g>
			<g id="XMLID_1037_">
				
					<rect id="XMLID_338_" x="112.9" y="439.8" transform="matrix(-0.9921 0.1254 -0.1254 -0.9921 284.8573 866.1567)" class="st21" width="4.5" height="4.5"/>
			</g>
			<g id="XMLID_1035_">
				
					<rect id="XMLID_337_" x="114.6" y="452.9" transform="matrix(-0.9921 0.1251 -0.1251 -0.9921 289.6171 892.0327)" class="st21" width="4.5" height="4.5"/>
			</g>
			<g id="XMLID_1033_">
				
					<rect id="XMLID_336_" x="113.7" y="446.3" transform="matrix(-0.9921 0.1252 -0.1252 -0.9921 287.2239 879.0986)" class="st21" width="4.5" height="4.5"/>
			</g>
			<g id="XMLID_1031_">
				
					<rect id="XMLID_335_" x="111" y="425" transform="matrix(-0.9922 0.1247 -0.1247 -0.9922 278.9762 837.0244)" class="st21" width="4.5" height="4.5"/>
			</g>
			<g id="XMLID_1029_">
				
					<rect id="XMLID_334_" x="110.2" y="418.5" transform="matrix(-0.9921 0.1255 -0.1255 -0.9921 276.8405 823.988)" class="st21" width="4.5" height="4.5"/>
			</g>
			<g id="XMLID_1027_">
				
					<rect id="XMLID_333_" x="121.4" y="458.6" transform="matrix(-0.9921 0.1251 -0.1251 -0.9921 304.0115 902.6589)" class="st21" width="4.5" height="4.5"/>
			</g>
			<g id="XMLID_1025_">
				
					<rect id="XMLID_332_" x="109.4" y="411.9" transform="matrix(-0.9922 0.1248 -0.1248 -0.9922 274.1012 811.1961)" class="st21" width="4.5" height="4.5"/>
			</g>
			<g id="XMLID_990_">
				<path id="XMLID_991_" class="st22" d="M94.7,411.6l7.2,57l26.7-3.4l-7.2-57L94.7,411.6z M108.1,465.1l-4.5,0.6l-0.6-4.5l4.5-0.6
					L108.1,465.1z M107.3,458.6l-4.5,0.6l-0.6-4.5l4.5-0.6L107.3,458.6z M106.4,452l-4.5,0.6l-0.6-4.5l4.5-0.6L106.4,452z
					 M105.6,445.5l-4.5,0.6l-0.6-4.5l4.5-0.6L105.6,445.5z M104.6,437.2l-4.5,0.6l-0.6-4.5l4.5-0.6L104.6,437.2z M103.7,430.7
					l-4.5,0.6l-0.6-4.5l4.5-0.6L103.7,430.7z M102.9,424.2l-4.5,0.6l-0.6-4.5l4.5-0.6L102.9,424.2z M102.1,417.7l-4.5,0.6l-0.6-4.5
					l4.5-0.6L102.1,417.7z M114.1,464.3l-4.5,0.6l-0.6-4.5l4.5-0.6L114.1,464.3z M113.3,457.8l-4.5,0.6l-0.6-4.5l4.5-0.6
					L113.3,457.8z M112.5,451.3l-4.5,0.6l-0.6-4.5l4.5-0.6L112.5,451.3z M111.6,444.8l-4.5,0.6l-0.6-4.5l4.5-0.6L111.6,444.8z
					 M110.6,436.5l-4.5,0.6l-0.6-4.5l4.5-0.6L110.6,436.5z M109.8,430l-4.5,0.6l-0.6-4.5l4.5-0.6L109.8,430z M108.9,423.4l-4.5,0.6
					l-0.6-4.5l4.5-0.6L108.9,423.4z M108.1,416.9l-4.5,0.6l-0.6-4.5l4.5-0.6L108.1,416.9z M120.1,463.6l-4.5,0.6l-0.6-4.5l4.5-0.6
					L120.1,463.6z M119.3,457.1l-4.5,0.6l-0.6-4.5l4.5-0.6L119.3,457.1z M118.5,450.5l-4.5,0.6l-0.6-4.5l4.5-0.6L118.5,450.5z
					 M117.7,444l-4.5,0.6l-0.6-4.5l4.5-0.6L117.7,444z M116.6,435.7l-4.5,0.6l-0.6-4.5l4.5-0.6L116.6,435.7z M115.8,429.2l-4.5,0.6
					l-0.6-4.5l4.5-0.6L115.8,429.2z M115,422.7l-4.5,0.6l-0.6-4.5l4.5-0.6L115,422.7z M114.2,416.1l-4.5,0.6l-0.6-4.5l4.5-0.6
					L114.2,416.1z M126.2,462.8l-4.5,0.6l-0.6-4.5l4.5-0.6L126.2,462.8z M125.3,456.3l-4.5,0.6l-0.6-4.5l4.5-0.6L125.3,456.3z
					 M124.5,449.8l-4.5,0.6l-0.6-4.5l4.5-0.6L124.5,449.8z M123.7,443.2l-4.5,0.6l-0.6-4.5l4.5-0.6L123.7,443.2z M122.7,435
					l-4.5,0.6l-0.6-4.5l4.5-0.6L122.7,435z M121.8,428.4l-4.5,0.6l-0.6-4.5l4.5-0.6L121.8,428.4z M121,421.9l-4.5,0.6L116,418
					l4.5-0.6L121,421.9z M120.2,415.4l-4.5,0.6l-0.6-4.5l4.5-0.6L120.2,415.4z"/>
			</g>
		</g>
		<g id="XMLID_889_">
			<g id="XMLID_987_">
				
					<rect id="XMLID_298_" x="157.8" y="444.8" transform="matrix(-0.9922 0.1249 -0.1249 -0.9922 373.7706 869.7689)" class="st23" width="3.6" height="3.6"/>
			</g>
			<g id="XMLID_985_">
				
					<rect id="XMLID_297_" x="157.1" y="439.5" transform="matrix(-0.9921 0.1255 -0.1255 -0.9921 372.0619 859.2215)" class="st23" width="3.6" height="3.6"/>
			</g>
			<g id="XMLID_983_">
				
					<rect id="XMLID_296_" x="156.3" y="432.9" transform="matrix(-0.9921 0.1255 -0.1255 -0.9921 369.5265 846.0521)" class="st23" width="3.6" height="3.6"/>
			</g>
			<g id="XMLID_981_">
				
					<rect id="XMLID_295_" x="159.1" y="455.3" transform="matrix(-0.9921 0.1251 -0.1251 -0.9921 377.8227 890.5445)" class="st23" width="3.6" height="3.6"/>
			</g>
			<g id="XMLID_979_">
				
					<rect id="XMLID_294_" x="154.3" y="455.9" transform="matrix(-0.9922 0.125 -0.125 -0.9922 368.1559 892.4004)" class="st23" width="3.6" height="3.6"/>
			</g>
			<g id="XMLID_977_">
				
					<rect id="XMLID_293_" x="154.3" y="417.1" transform="matrix(-0.9921 0.1256 -0.1256 -0.9921 363.613 814.8035)" class="st23" width="3.6" height="3.6"/>
			</g>
			<g id="XMLID_975_">
				
					<rect id="XMLID_292_" x="155" y="422.3" transform="matrix(-0.9922 0.125 -0.125 -0.9922 365.3412 825.3425)" class="st23" width="3.6" height="3.6"/>
			</g>
			<g id="XMLID_973_">
				
					<rect id="XMLID_291_" x="155.6" y="427.6" transform="matrix(-0.9921 0.1255 -0.1255 -0.9921 367.5403 835.6435)" class="st23" width="3.6" height="3.6"/>
			</g>
			<g id="XMLID_971_">
				
					<rect id="XMLID_290_" x="158.5" y="450.1" transform="matrix(-0.9921 0.1255 -0.1255 -0.9921 376.0063 880.0529)" class="st23" width="3.6" height="3.6"/>
			</g>
			<g id="XMLID_969_">
				
					<rect id="XMLID_289_" x="152.9" y="445.4" transform="matrix(-0.992 0.126 -0.126 -0.992 364.6426 871.3631)" class="st23" width="3.6" height="3.6"/>
			</g>
			<g id="XMLID_967_">
				
					<rect id="XMLID_288_" x="152.3" y="440.1" transform="matrix(-0.9921 0.1253 -0.1253 -0.9921 362.3526 861.1028)" class="st23" width="3.6" height="3.6"/>
			</g>
			<g id="XMLID_965_">
				
					<rect id="XMLID_287_" x="153.6" y="450.7" transform="matrix(-0.9921 0.1256 -0.1256 -0.9921 366.4593 881.8552)" class="st23" width="3.6" height="3.6"/>
			</g>
			<g id="XMLID_963_">
				
					<rect id="XMLID_286_" x="149.4" y="417.7" transform="matrix(-0.9921 0.1252 -0.1252 -0.9921 353.8571 816.7109)" class="st23" width="3.6" height="3.6"/>
			</g>
			<g id="XMLID_961_">
				
					<rect id="XMLID_285_" x="151.4" y="433.5" transform="matrix(-0.992 0.126 -0.126 -0.992 360.1373 847.7736)" class="st23" width="3.6" height="3.6"/>
			</g>
			<g id="XMLID_959_">
				
					<rect id="XMLID_284_" x="150.1" y="422.9" transform="matrix(-0.9921 0.1256 -0.1256 -0.9921 355.9976 827.0396)" class="st23" width="3.6" height="3.6"/>
			</g>
			<g id="XMLID_957_">
				
					<rect id="XMLID_283_" x="150.8" y="428.2" transform="matrix(-0.9922 0.125 -0.125 -0.9922 357.7174 837.5822)" class="st23" width="3.6" height="3.6"/>
			</g>
			<g id="XMLID_955_">
				
					<rect id="XMLID_282_" x="164" y="454.7" transform="matrix(-0.9921 0.1254 -0.1254 -0.9921 387.5458 888.6564)" class="st23" width="3.6" height="3.6"/>
			</g>
			<g id="XMLID_953_">
				
					<rect id="XMLID_281_" x="166" y="431.6" transform="matrix(-0.9922 0.125 -0.125 -0.9922 388.527 842.5013)" class="st23" width="3.6" height="3.6"/>
			</g>
			<g id="XMLID_951_">
				
					<rect id="XMLID_280_" x="165.4" y="426.4" transform="matrix(-0.9921 0.1251 -0.1251 -0.9921 386.5958 832.0641)" class="st23" width="3.6" height="3.6"/>
			</g>
			<g id="XMLID_949_">
				
					<rect id="XMLID_279_" x="166.9" y="438.3" transform="matrix(-0.9921 0.1251 -0.1251 -0.9921 391.0949 855.6533)" class="st23" width="3.6" height="3.6"/>
			</g>
			<g id="XMLID_947_">
				
					<rect id="XMLID_278_" x="167.5" y="443.6" transform="matrix(-0.9921 0.1251 -0.1251 -0.9921 393.0672 866.0674)" class="st23" width="3.6" height="3.6"/>
			</g>
			<g id="XMLID_945_">
				
					<rect id="XMLID_277_" x="168.2" y="448.8" transform="matrix(-0.9922 0.125 -0.125 -0.9922 395.0006 876.5045)" class="st23" width="3.6" height="3.6"/>
			</g>
			<g id="XMLID_943_">
				
					<rect id="XMLID_276_" x="164.7" y="421.1" transform="matrix(-0.9922 0.125 -0.125 -0.9922 384.5588 821.6846)" class="st23" width="3.6" height="3.6"/>
			</g>
			<g id="XMLID_941_">
				
					<rect id="XMLID_275_" x="164" y="415.8" transform="matrix(-0.9922 0.1246 -0.1246 -0.9922 382.4279 811.3549)" class="st23" width="3.6" height="3.6"/>
			</g>
			<g id="XMLID_939_">
				
					<rect id="XMLID_274_" x="159.8" y="421.7" transform="matrix(-0.9922 0.125 -0.125 -0.9922 374.98 823.4996)" class="st23" width="3.6" height="3.6"/>
			</g>
			<g id="XMLID_937_">
				
					<rect id="XMLID_273_" x="162" y="438.9" transform="matrix(-0.9922 0.1246 -0.1246 -0.9922 381.2591 857.6008)" class="st23" width="3.6" height="3.6"/>
			</g>
			<g id="XMLID_935_">
				
					<rect id="XMLID_272_" x="162.7" y="444.2" transform="matrix(-0.9921 0.1251 -0.1251 -0.9921 383.4679 867.895)" class="st23" width="3.6" height="3.6"/>
			</g>
			<g id="XMLID_933_">
				
					<rect id="XMLID_271_" x="168.9" y="454.1" transform="matrix(-0.9921 0.1251 -0.1251 -0.9921 397.0392 886.882)" class="st23" width="3.6" height="3.6"/>
			</g>
			<g id="XMLID_931_">
				
					<rect id="XMLID_270_" x="161.2" y="432.2" transform="matrix(-0.9921 0.1251 -0.1251 -0.9921 378.9674 844.3062)" class="st23" width="3.6" height="3.6"/>
			</g>
			<g id="XMLID_929_">
				
					<rect id="XMLID_269_" x="160.5" y="427" transform="matrix(-0.9921 0.1257 -0.1257 -0.9921 377.224 833.7694)" class="st23" width="3.6" height="3.6"/>
			</g>
			<g id="XMLID_927_">
				
					<rect id="XMLID_268_" x="163.3" y="449.4" transform="matrix(-0.9922 0.1248 -0.1248 -0.9922 385.3396 878.361)" class="st23" width="3.6" height="3.6"/>
			</g>
			<g id="XMLID_925_">
				
					<rect id="XMLID_267_" x="159.2" y="416.4" transform="matrix(-0.9921 0.1252 -0.1252 -0.9921 373.075 813.0493)" class="st23" width="3.6" height="3.6"/>
			</g>
			<g id="XMLID_890_">
				<path id="XMLID_891_" class="st7" d="M147.3,416.1l5.8,46l21.5-2.7l-5.8-46L147.3,416.1z M158.1,459.3l-3.6,0.5l-0.5-3.6
					l3.6-0.5L158.1,459.3z M157.4,454.1l-3.6,0.5l-0.5-3.6l3.6-0.5L157.4,454.1z M156.8,448.8l-3.6,0.5l-0.5-3.6l3.6-0.5
					L156.8,448.8z M156.1,443.5l-3.6,0.5l-0.5-3.6l3.6-0.5L156.1,443.5z M155.3,436.8l-3.6,0.5l-0.5-3.6l3.6-0.5L155.3,436.8z
					 M154.6,431.6L151,432l-0.5-3.6l3.6-0.5L154.6,431.6z M153.9,426.3l-3.6,0.5l-0.5-3.6l3.6-0.5L153.9,426.3z M153.3,421l-3.6,0.5
					l-0.5-3.6l3.6-0.5L153.3,421z M163,458.7l-3.6,0.5l-0.5-3.6l3.6-0.5L163,458.7z M162.3,453.4l-3.6,0.5l-0.5-3.6l3.6-0.5
					L162.3,453.4z M161.6,448.2l-3.6,0.5l-0.5-3.6l3.6-0.5L161.6,448.2z M161,442.9l-3.6,0.5l-0.5-3.6l3.6-0.5L161,442.9z
					 M160.1,436.2l-3.6,0.5l-0.5-3.6l3.6-0.5L160.1,436.2z M159.5,431l-3.6,0.5l-0.5-3.6l3.6-0.5L159.5,431z M158.8,425.7l-3.6,0.5
					l-0.5-3.6l3.6-0.5L158.8,425.7z M158.1,420.4l-3.6,0.5l-0.5-3.6l3.6-0.5L158.1,420.4z M167.8,458.1l-3.6,0.5l-0.5-3.6l3.6-0.5
					L167.8,458.1z M167.2,452.8l-3.6,0.5l-0.5-3.6l3.6-0.5L167.2,452.8z M166.5,447.6l-3.6,0.5l-0.5-3.6l3.6-0.5L166.5,447.6z
					 M165.8,442.3l-3.6,0.5l-0.5-3.6l3.6-0.5L165.8,442.3z M165,435.6l-3.6,0.5l-0.5-3.6l3.6-0.5L165,435.6z M164.3,430.4l-3.6,0.5
					l-0.5-3.6l3.6-0.5L164.3,430.4z M163.7,425.1l-3.6,0.5l-0.5-3.6l3.6-0.5L163.7,425.1z M163,419.8l-3.6,0.5l-0.5-3.6l3.6-0.5
					L163,419.8z M172.7,457.5l-3.6,0.5l-0.5-3.6l3.6-0.5L172.7,457.5z M172,452.2l-3.6,0.5l-0.5-3.6l3.6-0.5L172,452.2z
					 M171.4,446.9l-3.6,0.5l-0.5-3.6l3.6-0.5L171.4,446.9z M170.7,441.7l-3.6,0.5l-0.5-3.6l3.6-0.5L170.7,441.7z M169.9,435
					l-3.6,0.5l-0.5-3.6l3.6-0.5L169.9,435z M169.2,429.7l-3.6,0.5l-0.5-3.6l3.6-0.5L169.2,429.7z M168.5,424.5l-3.6,0.5l-0.5-3.6
					l3.6-0.5L168.5,424.5z M167.9,419.2l-3.6,0.5l-0.5-3.6l3.6-0.5L167.9,419.2z"/>
			</g>
		</g>
		<g id="XMLID_789_">
			<g id="XMLID_887_">
				
					<rect id="XMLID_233_" x="129.9" y="413.6" transform="matrix(-0.9921 0.1254 -0.1254 -0.9921 315.0228 811.4348)" class="st24" width="4.1" height="4.1"/>
			</g>
			<g id="XMLID_885_">
				
					<rect id="XMLID_232_" x="131.6" y="427.2" transform="matrix(-0.9921 0.1255 -0.1255 -0.9921 320.1948 838.29)" class="st24" width="4.1" height="4.1"/>
			</g>
			<g id="XMLID_883_">
				
					<rect id="XMLID_231_" x="127.6" y="439.9" transform="matrix(-0.9921 0.1255 -0.1255 -0.9921 313.7522 864.1005)" class="st24" width="4.1" height="4.1"/>
			</g>
			<g id="XMLID_881_">
				
					<rect id="XMLID_230_" x="138.7" y="438.5" transform="matrix(-0.9921 0.1254 -0.1254 -0.9921 335.6149 859.9399)" class="st24" width="4.1" height="4.1"/>
			</g>
			<g id="XMLID_879_">
				
					<rect id="XMLID_229_" x="128.4" y="401.6" transform="matrix(-0.9921 0.1254 -0.1254 -0.9921 310.4802 787.7317)" class="st24" width="4.1" height="4.1"/>
			</g>
			<g id="XMLID_877_">
				
					<rect id="XMLID_228_" x="129.2" y="407.6" transform="matrix(-0.9921 0.1251 -0.1251 -0.9921 312.6495 799.6316)" class="st24" width="4.1" height="4.1"/>
			</g>
			<g id="XMLID_875_">
				
					<rect id="XMLID_227_" x="127.6" y="395.6" transform="matrix(-0.9921 0.1255 -0.1255 -0.9921 308.2653 775.8522)" class="st24" width="4.1" height="4.1"/>
			</g>
			<g id="XMLID_873_">
				
					<rect id="XMLID_226_" x="132.4" y="433.2" transform="matrix(-0.9921 0.1255 -0.1255 -0.9921 322.4296 850.1588)" class="st24" width="4.1" height="4.1"/>
			</g>
			<g id="XMLID_871_">
				
					<rect id="XMLID_225_" x="130.9" y="421.2" transform="matrix(-0.9921 0.1254 -0.1254 -0.9921 317.8876 826.4533)" class="st24" width="4.1" height="4.1"/>
			</g>
			<g id="XMLID_869_">
				
					<rect id="XMLID_224_" x="126.1" y="427.9" transform="matrix(-0.9921 0.1254 -0.1254 -0.9921 309.202 840.4001)" class="st24" width="4.1" height="4.1"/>
			</g>
			<g id="XMLID_867_">
				
					<rect id="XMLID_223_" x="124.4" y="414.3" transform="matrix(-0.9921 0.1253 -0.1253 -0.9921 304.0316 813.5437)" class="st24" width="4.1" height="4.1"/>
			</g>
			<g id="XMLID_865_">
				
					<rect id="XMLID_222_" x="125.3" y="421.9" transform="matrix(-0.9921 0.1253 -0.1253 -0.9921 306.8993 828.5607)" class="st24" width="4.1" height="4.1"/>
			</g>
			<g id="XMLID_863_">
				
					<rect id="XMLID_221_" x="126.8" y="433.9" transform="matrix(-0.9921 0.1251 -0.1251 -0.9921 311.3432 852.3078)" class="st24" width="4.1" height="4.1"/>
			</g>
			<g id="XMLID_861_">
				
					<rect id="XMLID_220_" x="122.1" y="396.3" transform="matrix(-0.9922 0.1245 -0.1245 -0.9922 296.9523 778.1052)" class="st24" width="4.1" height="4.1"/>
			</g>
			<g id="XMLID_859_">
				
					<rect id="XMLID_219_" x="133.1" y="439.2" transform="matrix(-0.9921 0.1254 -0.1254 -0.9921 324.6472 862.0358)" class="st24" width="4.1" height="4.1"/>
			</g>
			<g id="XMLID_857_">
				
					<rect id="XMLID_218_" x="122.9" y="402.3" transform="matrix(-0.9921 0.1254 -0.1254 -0.9921 299.5567 789.8067)" class="st24" width="4.1" height="4.1"/>
			</g>
			<g id="XMLID_855_">
				
					<rect id="XMLID_217_" x="123.6" y="408.3" transform="matrix(-0.9921 0.1253 -0.1253 -0.9921 301.7926 801.6765)" class="st24" width="4.1" height="4.1"/>
			</g>
			<g id="XMLID_853_">
				
					<rect id="XMLID_216_" x="133.2" y="394.9" transform="matrix(-0.9921 0.1253 -0.1253 -0.9921 319.1434 773.7961)" class="st24" width="4.1" height="4.1"/>
			</g>
			<g id="XMLID_851_">
				
					<rect id="XMLID_215_" x="141" y="412.2" transform="matrix(-0.9921 0.1251 -0.1251 -0.9921 336.8015 807.3167)" class="st24" width="4.1" height="4.1"/>
			</g>
			<g id="XMLID_849_">
				
					<rect id="XMLID_214_" x="142.7" y="425.8" transform="matrix(-0.9921 0.1251 -0.1251 -0.9921 341.9263 834.191)" class="st24" width="4.1" height="4.1"/>
			</g>
			<g id="XMLID_847_">
				
					<rect id="XMLID_213_" x="137.9" y="432.5" transform="matrix(-0.9921 0.1254 -0.1254 -0.9921 333.3556 848.0813)" class="st24" width="4.1" height="4.1"/>
			</g>
			<g id="XMLID_845_">
				
					<rect id="XMLID_212_" x="140.2" y="406.2" transform="matrix(-0.9922 0.125 -0.125 -0.9922 334.5003 795.4791)" class="st24" width="4.1" height="4.1"/>
			</g>
			<g id="XMLID_843_">
				
					<rect id="XMLID_211_" x="139.5" y="400.2" transform="matrix(-0.9921 0.1256 -0.1256 -0.9921 332.4632 783.512)" class="st24" width="4.1" height="4.1"/>
			</g>
			<g id="XMLID_841_">
				
					<rect id="XMLID_210_" x="138.7" y="394.2" transform="matrix(-0.9921 0.1253 -0.1253 -0.9921 330.1071 771.6986)" class="st24" width="4.1" height="4.1"/>
			</g>
			<g id="XMLID_839_">
				
					<rect id="XMLID_209_" x="141.9" y="419.8" transform="matrix(-0.9922 0.1246 -0.1246 -0.9922 339.4578 822.4352)" class="st24" width="4.1" height="4.1"/>
			</g>
			<g id="XMLID_837_">
				
					<rect id="XMLID_208_" x="136.4" y="420.5" transform="matrix(-0.9921 0.1252 -0.1252 -0.9921 328.7639 824.3966)" class="st24" width="4.1" height="4.1"/>
			</g>
			<g id="XMLID_835_">
				
					<rect id="XMLID_207_" x="137.2" y="426.5" transform="matrix(-0.9921 0.1255 -0.1255 -0.9921 331.1205 836.2104)" class="st24" width="4.1" height="4.1"/>
			</g>
			<g id="XMLID_833_">
				
					<rect id="XMLID_206_" x="135.4" y="412.9" transform="matrix(-0.9922 0.1246 -0.1246 -0.9922 325.6534 809.4979)" class="st24" width="4.1" height="4.1"/>
			</g>
			<g id="XMLID_831_">
				
					<rect id="XMLID_205_" x="134.7" y="406.9" transform="matrix(-0.9921 0.1251 -0.1251 -0.9921 323.5768 797.554)" class="st24" width="4.1" height="4.1"/>
			</g>
			<g id="XMLID_829_">
				
					<rect id="XMLID_204_" x="143.5" y="431.8" transform="matrix(-0.9922 0.125 -0.125 -0.9922 344.1151 846.0824)" class="st24" width="4.1" height="4.1"/>
			</g>
			<g id="XMLID_827_">
				
					<rect id="XMLID_203_" x="144.2" y="437.8" transform="matrix(-0.9921 0.1256 -0.1256 -0.9921 346.6367 857.8156)" class="st24" width="4.1" height="4.1"/>
			</g>
			<g id="XMLID_825_">
				
					<rect id="XMLID_202_" x="133.9" y="400.9" transform="matrix(-0.9921 0.1253 -0.1253 -0.9921 321.4074 785.6526)" class="st24" width="4.1" height="4.1"/>
			</g>
			<g id="XMLID_790_">
				<path id="XMLID_791_" class="st5" d="M142.6,391.6l-0.3-2.5l-0.9,0.1l-9.8-5.1l-1.9-9.2l0.4,9.3l-8.3,7.3l-0.9,0.1l0.3,2.5
					l-1.6,0.2l8.9,70.8l24.5-3.1l-8.9-70.8L142.6,391.6z M132,443.7l-4.1,0.5l-0.5-4.1l4.1-0.5L132,443.7z M131.2,437.7l-4.1,0.5
					l-0.5-4.1l4.1-0.5L131.2,437.7z M130.5,431.7l-4.1,0.5l-0.5-4.1l4.1-0.5L130.5,431.7z M129.7,425.7l-4.1,0.5l-0.5-4.1l4.1-0.5
					L129.7,425.7z M128.7,418.1l-4.1,0.5l-0.5-4.1l4.1-0.5L128.7,418.1z M128,412.1l-4.1,0.5l-0.5-4.1l4.1-0.5L128,412.1z
					 M127.2,406.1l-4.1,0.5l-0.5-4.1l4.1-0.5L127.2,406.1z M126.5,400.1l-4.1,0.5l-0.5-4.1l4.1-0.5L126.5,400.1z M137.5,443
					l-4.1,0.5l-0.5-4.1l4.1-0.5L137.5,443z M136.7,437l-4.1,0.5l-0.5-4.1l4.1-0.5L136.7,437z M136,431l-4.1,0.5l-0.5-4.1l4.1-0.5
					L136,431z M135.2,425l-4.1,0.5l-0.5-4.1l4.1-0.5L135.2,425z M134.3,417.4l-4.1,0.5l-0.5-4.1l4.1-0.5L134.3,417.4z M133.5,411.4
					l-4.1,0.5l-0.5-4.1l4.1-0.5L133.5,411.4z M132.8,405.4l-4.1,0.5l-0.5-4.1l4.1-0.5L132.8,405.4z M132,399.4l-4.1,0.5l-0.5-4.1
					l4.1-0.5L132,399.4z M143,442.3l-4.1,0.5l-0.5-4.1l4.1-0.5L143,442.3z M142.3,436.3l-4.1,0.5l-0.5-4.1l4.1-0.5L142.3,436.3z
					 M141.5,430.3l-4.1,0.5l-0.5-4.1l4.1-0.5L141.5,430.3z M140.8,424.3l-4.1,0.5l-0.5-4.1l4.1-0.5L140.8,424.3z M139.8,416.7
					l-4.1,0.5l-0.5-4.1l4.1-0.5L139.8,416.7z M139.1,410.7l-4.1,0.5l-0.5-4.1l4.1-0.5L139.1,410.7z M138.3,404.7l-4.1,0.5l-0.5-4.1
					l4.1-0.5L138.3,404.7z M137.5,398.7l-4.1,0.5l-0.5-4.1l4.1-0.5L137.5,398.7z M148.6,441.6l-4.1,0.5L144,438l4.1-0.5L148.6,441.6
					z M147.8,435.6l-4.1,0.5l-0.5-4.1l4.1-0.5L147.8,435.6z M147.1,429.6l-4.1,0.5l-0.5-4.1l4.1-0.5L147.1,429.6z M146.3,423.6
					l-4.1,0.5l-0.5-4.1l4.1-0.5L146.3,423.6z M145.4,416l-4.1,0.5l-0.5-4.1l4.1-0.5L145.4,416z M144.6,410l-4.1,0.5l-0.5-4.1
					l4.1-0.5L144.6,410z M143.8,404l-4.1,0.5l-0.5-4.1l4.1-0.5L143.8,404z M143.1,398l-4.1,0.5l-0.5-4.1l4.1-0.5L143.1,398z"/>
			</g>
		</g>
	</g>
	<g id="XMLID_786_">
		
			<rect id="XMLID_168_" x="95.9" y="464.1" transform="matrix(0.9921 -0.1252 0.1252 0.9921 -57.446 21.0265)" class="st20" width="85.1" height="6.6"/>
	</g>
</g>
<g id="XMLID_751_">
	<g id="XMLID_783_">
		<path id="XMLID_167_" class="st14" d="M623.8,251.8c1,3.8-3.8,8.3-10.7,10.1c-6.9,1.7-13.3,0-14.2-3.8c-1-3.8,3.8-8.3,10.7-10.1
			C616.4,246.3,622.8,248,623.8,251.8z"/>
	</g>
	<g id="XMLID_781_">
		<path id="XMLID_166_" class="st17" d="M620.4,251.8c0.4,1.8-3.3,4.3-8.5,5.6c-5.1,1.3-9.6,0.9-10.1-0.9c-0.4-1.8,3.3-4.3,8.5-5.6
			C615.4,249.6,619.9,250,620.4,251.8z"/>
	</g>
	<g id="XMLID_752_">
		<g id="XMLID_779_">
			
				<rect id="XMLID_165_" x="605.1" y="251.9" transform="matrix(0.9747 -0.2236 0.2236 0.9747 -41.2087 143.0219)" class="st25" width="11.6" height="3.1"/>
		</g>
		<g id="XMLID_777_">
			<path id="XMLID_164_" class="st25" d="M597.9,182.4l-0.5,0.1l-5.3,1.2l-0.5,0.1c-0.8,0.2-1.3,1-1.1,1.8c0.2,0.8,1,1.3,1.8,1.2
				l6.3-1.4c0.8-0.2,1.3-1,1.2-1.8C599.6,182.7,598.7,182.2,597.9,182.4z"/>
		</g>
		<g id="XMLID_775_">
			<polygon id="XMLID_163_" class="st26" points="584.2,166.2 590,177.3 592.6,176.7 589.9,164.9 			"/>
		</g>
		<g id="XMLID_773_">
			<polygon id="XMLID_162_" class="st26" points="596.6,175.8 597,163.3 591.3,164.6 594,176.4 			"/>
		</g>
		<g id="XMLID_768_">
			<path id="XMLID_769_" class="st27" d="M591,163.6l-1.4,0.3l-6.9,1.6l6.7,12.9l3.4-0.8l1.4-0.3l3.4-0.8L598,162L591,163.6z
				 M590,177.3l-5.8-11.1l5.7-1.3l2.7,11.8L590,177.3z M596.6,175.8l-2.6,0.6l-2.7-11.8l5.7-1.3L596.6,175.8z"/>
		</g>
		<g id="XMLID_766_">
			<path id="XMLID_158_" class="st25" d="M598.9,160.7c0.1,0.6-0.2,1.1-0.8,1.2l-15.6,3.6c-0.6,0.1-1.1-0.2-1.2-0.8l0,0
				c-0.1-0.6,0.2-1.1,0.8-1.2l15.6-3.6C598.2,159.8,598.8,160.2,598.9,160.7L598.9,160.7z"/>
		</g>
		<g id="XMLID_764_">
			<path id="XMLID_157_" class="st25" d="M589.4,154.8l-0.3-1.4l-2,0.5l0.3,1.4c0.3-0.1,0.7-0.2,1-0.3
				C588.7,154.9,589,154.8,589.4,154.8z"/>
		</g>
		<g id="XMLID_762_">
			<path id="XMLID_156_" class="st28" d="M589.4,154.8c-0.3,0-0.7,0.1-1,0.2c-0.3,0.1-0.7,0.2-1,0.3c-3.2,1.2-5.1,4.6-4.4,8.1
				l14-3.2C596,156.7,592.8,154.5,589.4,154.8z"/>
		</g>
		<g id="XMLID_760_">
			
				<rect id="XMLID_155_" x="568.7" y="217.9" transform="matrix(-0.2237 -0.9747 0.9747 -0.2237 523.6738 855.4119)" class="st29" width="67.6" height="2.5"/>
		</g>
		<g id="XMLID_758_">
			
				<rect id="XMLID_154_" x="603.7" y="184.9" transform="matrix(0.9747 -0.2236 0.2236 0.9747 -33.614 140.6376)" class="st27" width="1.1" height="67.6"/>
		</g>
		<g id="XMLID_753_">
			<g id="XMLID_756_">
				<path id="XMLID_153_" class="st29" d="M590.2,178.3c1.1,2.3,1.6,4.3,1.9,5.4l3.9-0.9c-0.2-1-0.6-3.1-0.6-5.7L590.2,178.3z"/>
			</g>
			<g id="XMLID_754_">
				<path id="XMLID_152_" class="st27" d="M596.8,176.8l-1.4,0.3c0.1,2.6,0.4,4.7,0.6,5.7l1.5-0.3
					C597.2,181.3,596.8,179.3,596.8,176.8z"/>
			</g>
		</g>
	</g>
</g>
<g id="XMLID_717_">
	<g id="XMLID_749_">
		<path id="XMLID_151_" class="st14" d="M260.5,257.5c-0.6,3.8-6.6,6.1-13.5,5.1c-6.9-1-12-5-11.4-8.8c0.6-3.8,6.6-6.1,13.5-5.1
			C256,249.7,261.1,253.6,260.5,257.5z"/>
	</g>
	<g id="XMLID_747_">
		
			<ellipse id="XMLID_150_" transform="matrix(0.989 0.1478 -0.1478 0.989 40.3784 -33.8905)" class="st17" cx="248.2" cy="254.7" rx="9.4" ry="3.3"/>
	</g>
	<g id="XMLID_718_">
		<g id="XMLID_745_">
			
				<rect id="XMLID_149_" x="242.6" y="252.6" transform="matrix(0.9859 0.1675 -0.1675 0.9859 46.061 -37.994)" class="st25" width="11.4" height="3"/>
		</g>
		<g id="XMLID_743_">
			<path id="XMLID_148_" class="st25" d="M263.2,185l-0.5-0.1l-5.3-0.9l-0.5-0.1c-0.8-0.1-1.6,0.4-1.7,1.2c-0.1,0.8,0.4,1.6,1.2,1.7
				l6.2,1.1c0.8,0.1,1.6-0.4,1.7-1.2C264.6,185.9,264,185.1,263.2,185z"/>
		</g>
		<g id="XMLID_741_">
			<polygon id="XMLID_147_" class="st26" points="256.9,165.2 257.9,177.4 260.5,177.9 262.5,166.2 			"/>
		</g>
		<g id="XMLID_739_">
			<polygon id="XMLID_146_" class="st26" points="264.5,178.6 269.5,167.3 263.9,166.4 261.9,178.1 			"/>
		</g>
		<g id="XMLID_734_">
			<path id="XMLID_735_" class="st27" d="M264.1,165.5l-1.4-0.2l-6.8-1.2l1.2,14.2l3.3,0.6l1.4,0.2l3.3,0.6l5.8-13L264.1,165.5z
				 M257.9,177.4l-1-12.2l5.6,1l-2,11.7L257.9,177.4z M264.5,178.6l-2.6-0.4l2-11.7l5.6,1L264.5,178.6z"/>
		</g>
		<g id="XMLID_732_">
			<path id="XMLID_142_" class="st25" d="M272.2,165.8c-0.1,0.6-0.6,0.9-1.2,0.8l-15.4-2.6c-0.6-0.1-0.9-0.6-0.8-1.2l0,0
				c0.1-0.5,0.6-0.9,1.2-0.8l15.4,2.6C272,164.7,272.3,165.3,272.2,165.8L272.2,165.8z"/>
		</g>
		<g id="XMLID_730_">
			<path id="XMLID_141_" class="st25" d="M265.8,156.9l0.2-1.4l-2-0.3l-0.2,1.4c0.3,0,0.7,0,1,0.1
				C265.2,156.7,265.5,156.8,265.8,156.9z"/>
		</g>
		<g id="XMLID_728_">
			<path id="XMLID_140_" class="st28" d="M265.8,156.9c-0.3-0.1-0.7-0.2-1-0.3c-0.3-0.1-0.7-0.1-1-0.1c-3.4-0.1-6.4,2.3-7,5.6
				l13.8,2.3C271.1,161.1,269,157.9,265.8,156.9z"/>
		</g>
		<g id="XMLID_726_">
			
				<rect id="XMLID_139_" x="220.5" y="218.7" transform="matrix(0.1673 -0.9859 0.9859 0.1673 -5.677 433.1473)" class="st29" width="66.2" height="2.4"/>
		</g>
		<g id="XMLID_724_">
			
				<rect id="XMLID_138_" x="254.8" y="187.1" transform="matrix(0.9857 0.1688 -0.1688 0.9857 40.8242 -39.9199)" class="st27" width="1" height="66.2"/>
		</g>
		<g id="XMLID_719_">
			<g id="XMLID_722_">
				<path id="XMLID_137_" class="st29" d="M257.8,178.4c0.1,2.5-0.1,4.5-0.3,5.6l3.8,0.6c0.2-1,0.7-3,1.6-5.4L257.8,178.4z"/>
			</g>
			<g id="XMLID_720_">
				<path id="XMLID_136_" class="st27" d="M264.3,179.5l-1.4-0.2c-0.9,2.4-1.4,4.4-1.6,5.4l1.4,0.2
					C262.9,183.8,263.4,181.8,264.3,179.5z"/>
			</g>
		</g>
	</g>
</g>
<g id="XMLID_623_">
	<g id="XMLID_715_">
		<polygon id="XMLID_135_" class="st30" points="643.4,406.7 644.6,387.9 645.8,388 681.7,390.1 680.4,411 644.5,408.8 643.3,408.7 
			643.3,408.7 		"/>
	</g>
	<g id="XMLID_713_">
		
			<rect id="XMLID_134_" x="649.9" y="393.8" transform="matrix(-0.9982 -6.071136e-002 6.071136e-002 -0.9982 1300.1154 837.1226)" class="st31" width="25.7" height="10.1"/>
	</g>
	<g id="XMLID_711_">
		
			<rect id="XMLID_133_" x="644.4" y="409.8" transform="matrix(-0.9982 -6.071248e-002 6.071248e-002 -0.9982 1297.3046 861.9882)" class="st32" width="34.6" height="2.9"/>
	</g>
	<g id="XMLID_709_">
		
			<rect id="XMLID_132_" x="620.6" y="408.1" transform="matrix(-0.9982 -6.071408e-002 6.071408e-002 -0.9982 1239.0389 856.6659)" class="st33" width="23.9" height="2.9"/>
	</g>
	<g id="XMLID_707_">
		<polygon id="XMLID_131_" class="st34" points="632.9,367.6 634.1,369.5 621,386.5 618.9,386.3 619,385.6 		"/>
	</g>
	<g id="XMLID_705_">
		<polygon id="XMLID_130_" class="st35" points="634.1,369.5 644.6,387.2 644.6,387.9 643.5,404.9 643.3,408.7 643.3,408.7 
			619.7,407.3 619.7,407.2 621,386.5 		"/>
	</g>
	<g id="XMLID_700_">
		<g id="XMLID_703_">
			<polygon id="XMLID_129_" class="st36" points="672.7,370 684.4,389.6 644.6,387.2 634.1,369.5 632.9,367.6 			"/>
		</g>
		<g id="XMLID_701_">
			<polygon id="XMLID_128_" class="st34" points="684.5,389.9 684.5,390.3 658.5,388.7 645.8,388 644.6,387.9 644.6,387.2 
				684.4,389.6 			"/>
		</g>
	</g>
	<g id="XMLID_698_">
		
			<rect id="XMLID_127_" x="650.3" y="393.4" transform="matrix(-0.9982 -6.072824e-002 6.072824e-002 -0.9982 1301.0062 836.3806)" class="st14" width="25.7" height="10.1"/>
	</g>
	<g id="XMLID_696_">
		
			<rect id="XMLID_126_" x="627.4" y="396" transform="matrix(-0.9982 -6.068302e-002 6.068302e-002 -0.9982 1237.6212 841.4995)" class="st14" width="8.3" height="12"/>
	</g>
	<g id="XMLID_694_">
		
			<rect id="XMLID_125_" x="644.6" y="363.3" transform="matrix(-0.9982 -6.073996e-002 6.073996e-002 -0.9982 1269.7263 770.3176)" class="st37" width="3.9" height="5"/>
	</g>
	<g id="XMLID_692_">
		
			<rect id="XMLID_124_" x="643.1" y="363.2" transform="matrix(-0.9982 -6.065878e-002 6.065878e-002 -0.9982 1264.3739 769.7773)" class="st38" width="1.6" height="5"/>
	</g>
	<g id="XMLID_690_">
		<circle id="XMLID_123_" class="st14" cx="633.2" cy="384" r="3.8"/>
	</g>
	<g id="XMLID_688_">
		<path id="XMLID_122_" class="st39" d="M630.7,383.8c0.1-1.4,1.3-2.4,2.6-2.3c0.8,0.1,1.5,0.5,1.9,1.2c-0.4-0.4-0.9-0.6-1.5-0.6
			c-1.4-0.1-2.6,1-2.6,2.3c0,0.5,0.1,1.1,0.4,1.5C631,385.3,630.7,384.6,630.7,383.8z"/>
	</g>
	<g id="XMLID_686_">
		<path id="XMLID_121_" class="st40" d="M633.8,382c0.6,0,1.1,0.3,1.5,0.6c0.3,0.4,0.4,0.9,0.4,1.5c-0.1,1.4-1.3,2.4-2.6,2.3
			c-0.6,0-1.1-0.3-1.5-0.6c-0.3-0.4-0.4-0.9-0.4-1.5C631.2,383,632.4,381.9,633.8,382z"/>
	</g>
	<g id="XMLID_684_">
		<polygon id="XMLID_120_" class="st41" points="629.2,397.4 634.5,397.7 634.5,398.4 629.8,398.2 629.3,407.9 628.5,407.8 		"/>
	</g>
	<g id="XMLID_682_">
		
			<rect id="XMLID_119_" x="627" y="400.8" transform="matrix(6.063642e-002 -0.9982 0.9982 6.063642e-002 191.139 1009.4041)" class="st42" width="9.7" height="4.6"/>
	</g>
	<g id="XMLID_680_">
		<polygon id="XMLID_118_" class="st39" points="668,396 668,395.2 674.7,395.6 674.3,402.6 673.5,402.6 673.8,396.4 		"/>
	</g>
	<g id="XMLID_678_">
		<polygon id="XMLID_117_" class="st39" points="660,395.6 660.1,394.7 666.8,395.1 666.3,402.1 665.5,402.1 665.9,395.9 		"/>
	</g>
	<g id="XMLID_676_">
		<polygon id="XMLID_116_" class="st39" points="652.1,395.1 652.2,394.2 658.8,394.6 658.4,401.7 657.6,401.6 658,395.4 		"/>
	</g>
	<g id="XMLID_674_">
		
			<rect id="XMLID_115_" x="667.8" y="396.2" transform="matrix(-0.9982 -6.069050e-002 6.069050e-002 -0.9982 1315.9811 838.5873)" class="st40" width="5.9" height="6.2"/>
	</g>
	<g id="XMLID_672_">
		
			<rect id="XMLID_114_" x="659.9" y="395.7" transform="matrix(-0.9982 -6.065137e-002 6.065137e-002 -0.9982 1300.1709 837.1173)" class="st40" width="5.9" height="6.2"/>
	</g>
	<g id="XMLID_670_">
		
			<rect id="XMLID_113_" x="651.9" y="395.2" transform="matrix(-0.9982 -6.069554e-002 6.069554e-002 -0.9982 1284.3199 835.7008)" class="st40" width="5.9" height="6.2"/>
	</g>
	<g id="XMLID_668_">
		<polygon id="XMLID_112_" class="st43" points="632.9,410 633,409 633.9,409.1 633.9,408.1 635,408.2 634.8,411.1 631.9,410.9 
			632,409.9 		"/>
	</g>
	<g id="XMLID_666_">
		<polygon id="XMLID_111_" class="st44" points="626.9,408.6 627.8,408.7 633,409 632.9,410 632,409.9 626.8,409.6 		"/>
	</g>
	<g id="XMLID_664_">
		<polygon id="XMLID_110_" class="st37" points="627.9,407.7 633.9,408.1 633.9,409.1 633,409 627.8,408.7 		"/>
	</g>
	<g id="XMLID_662_">
		<polygon id="XMLID_109_" class="st37" points="632,409.9 631.9,410.9 625.9,410.6 625.9,409.5 626.8,409.6 		"/>
	</g>
	<g id="XMLID_660_">
		
			<rect id="XMLID_108_" x="670.8" y="395.2" transform="matrix(-0.998 -6.394884e-002 6.394884e-002 -0.998 1315.4161 839.9067)" class="st14" width="0.6" height="7.3"/>
	</g>
	<g id="XMLID_658_">
		
			<rect id="XMLID_107_" x="670.8" y="395.2" transform="matrix(-6.405090e-002 0.9979 -0.9979 -6.405090e-002 1112.2206 -245.3155)" class="st14" width="0.6" height="7.3"/>
	</g>
	<g id="XMLID_656_">
		
			<rect id="XMLID_106_" x="662.9" y="394.8" transform="matrix(-0.998 -6.295803e-002 6.295803e-002 -0.998 1300.0281 837.8049)" class="st14" width="0.6" height="7.3"/>
	</g>
	<g id="XMLID_654_">
		
			<rect id="XMLID_105_" x="662.9" y="394.8" transform="matrix(-6.009933e-002 0.9982 -0.9982 -6.009933e-002 1100.7728 -239.6486)" class="st14" width="0.6" height="7.3"/>
	</g>
	<g id="XMLID_652_">
		
			<rect id="XMLID_104_" x="655" y="394.3" transform="matrix(-0.998 -6.380142e-002 6.380142e-002 -0.998 1283.8285 836.8717)" class="st14" width="0.6" height="7.3"/>
	</g>
	<g id="XMLID_650_">
		
			<rect id="XMLID_103_" x="655" y="394.3" transform="matrix(-6.142105e-002 0.9981 -0.9981 -6.142105e-002 1092.7136 -231.6597)" class="st14" width="0.6" height="7.3"/>
	</g>
	<g id="XMLID_648_">
		<path id="XMLID_102_" class="st45" d="M632.7,402.3c-0.1,0.1-0.1,0.2-0.1,0.3c0,0.3,0.2,0.6,0.6,0.6c0.1,0,0.2,0,0.3-0.1
			c-0.1,0.2-0.3,0.3-0.5,0.2c-0.3,0-0.6-0.3-0.6-0.6C632.4,402.6,632.5,402.4,632.7,402.3z"/>
	</g>
	<g id="XMLID_646_">
		<path id="XMLID_101_" class="st46" d="M632.6,402.7c0-0.1,0.1-0.2,0.1-0.3c0.1-0.1,0.2-0.1,0.3-0.1c0.3,0,0.6,0.3,0.6,0.6
			c0,0.1-0.1,0.2-0.1,0.3c-0.1,0.1-0.2,0.1-0.3,0.1C632.8,403.3,632.6,403,632.6,402.7z"/>
	</g>
	<g id="XMLID_641_">
		<g id="XMLID_644_">
			<path id="XMLID_100_" class="st47" d="M631,393.5c0-0.5,0.4-0.8,0.9-0.8l1.2,0.1c0.5,0,0.8,0.4,0.8,0.9c0,0.1-0.1,0.3-0.1,0.4
				l-2.7-0.2C631,393.7,631,393.6,631,393.5z"/>
		</g>
		<g id="XMLID_642_">
			<path id="XMLID_99_" class="st48" d="M633.8,394c-0.2,0.3-0.5,0.4-0.8,0.4l-1.2-0.1c-0.3,0-0.6-0.2-0.7-0.5L633.8,394z"/>
		</g>
	</g>
	<g id="XMLID_639_">
		
			<rect id="XMLID_98_" x="632.2" y="391.1" transform="matrix(-0.9984 -5.709657e-002 5.709657e-002 -0.9984 1241.75 819.2713)" class="st14" width="0.7" height="1.6"/>
	</g>
	<g id="XMLID_637_">
		<polygon id="XMLID_97_" class="st38" points="646.6,365.3 648.5,365.4 648.6,364.6 646.7,364.5 		"/>
	</g>
	<g id="XMLID_635_">
		
			<rect id="XMLID_96_" x="644.6" y="366.1" transform="matrix(-0.9981 -6.123239e-002 6.123239e-002 -0.9981 1267.4877 771.7622)" class="st38" width="1.9" height="0.8"/>
	</g>
	<g id="XMLID_630_">
		<g id="XMLID_633_">
			<path id="XMLID_95_" class="st38" d="M643.3,361.3l5.4,0.3c0.5,0,0.9,0.5,0.9,1c0,0.1,0,0.2-0.1,0.3l-7.1-1
				C642.6,361.5,642.9,361.3,643.3,361.3z"/>
		</g>
		<g id="XMLID_631_">
			<path id="XMLID_94_" class="st43" d="M649.6,362.9c-0.2,0.3-0.5,0.6-0.9,0.5l-5.4-0.3c-0.5,0-0.9-0.5-0.9-1c0-0.1,0-0.2,0.1-0.3
				L649.6,362.9z"/>
		</g>
	</g>
	<g id="XMLID_628_">
		<path id="XMLID_93_" class="st49" d="M661.9,372.8c0,0.5,0.4,0.9,0.9,1l7.1,0.4c0.5,0,1-0.4,1-0.9l0,0c0-0.5-0.4-1-0.9-1l-7.1-0.4
			C662.3,371.9,661.9,372.3,661.9,372.8L661.9,372.8z"/>
	</g>
	<g id="XMLID_626_">
		<path id="XMLID_92_" class="st49" d="M645.4,376.7c0,0.5,0.4,1,0.9,1l12.5,0.8c0.5,0,1-0.4,1-0.9l0,0c0-0.5-0.4-1-0.9-1l-12.5-0.8
			C645.9,375.8,645.5,376.2,645.4,376.7L645.4,376.7z"/>
	</g>
	<g id="XMLID_624_">
		<path id="XMLID_91_" class="st49" d="M656.4,372.5c0,0.5,0.4,1,0.9,1l1.5,0.1c0.5,0,1-0.4,1-0.9l0,0c0-0.5-0.4-1-0.9-1l-1.5-0.1
			C656.9,371.6,656.5,372,656.4,372.5L656.4,372.5z"/>
	</g>
</g>
<g id="XMLID_434_">
	<g id="XMLID_529_">
		<g id="XMLID_621_">
			<polygon id="XMLID_90_" class="st30" points="246.8,427.3 247.3,414.8 246.4,414.8 222.7,413.9 222.1,427.7 245.9,428.6 
				246.7,428.6 246.7,428.6 			"/>
		</g>
		<g id="XMLID_619_">
			<polygon id="XMLID_89_" class="st31" points="242.9,424.5 225.9,423.8 226.1,417.2 243.2,417.8 			"/>
		</g>
		<g id="XMLID_617_">
			
				<rect id="XMLID_88_" x="222.9" y="428.1" transform="matrix(0.9993 3.780120e-002 -3.780120e-002 0.9993 16.3883 -8.5542)" class="st32" width="23" height="1.9"/>
		</g>
		<g id="XMLID_615_">
			
				<rect id="XMLID_87_" x="245.9" y="428.9" transform="matrix(0.9993 3.773274e-002 -3.773274e-002 0.9993 16.3998 -9.27)" class="st33" width="15.8" height="1.9"/>
		</g>
		<g id="XMLID_613_">
			<polygon id="XMLID_86_" class="st34" points="256.3,402.2 255.4,403.4 262.9,415.4 264.3,415.4 264.3,415 			"/>
		</g>
		<g id="XMLID_611_">
			<polygon id="XMLID_85_" class="st35" points="255.4,403.4 247.3,414.3 247.3,414.8 246.8,426.1 246.7,428.6 246.7,428.6 
				262.4,429.2 262.4,429.2 262.9,415.4 			"/>
		</g>
		<g id="XMLID_606_">
			<g id="XMLID_609_">
				<polygon id="XMLID_84_" class="st36" points="229.9,401.2 220.9,413.3 247.3,414.3 255.4,403.4 256.3,402.2 				"/>
			</g>
			<g id="XMLID_607_">
				<polygon id="XMLID_83_" class="st34" points="220.8,413.5 220.8,413.8 238,414.5 246.4,414.8 247.3,414.8 247.3,414.3 
					220.9,413.3 				"/>
			</g>
		</g>
		<g id="XMLID_604_">
			
				<rect id="XMLID_82_" x="225.8" y="417.2" transform="matrix(0.9993 3.776624e-002 -3.776624e-002 0.9993 16.049 -8.5479)" class="st14" width="17.1" height="6.7"/>
		</g>
		<g id="XMLID_602_">
			
				<rect id="XMLID_81_" x="252.2" y="420.9" transform="matrix(0.9993 3.841120e-002 -3.841120e-002 0.9993 16.5099 -9.4775)" class="st14" width="5.5" height="8"/>
		</g>
		<g id="XMLID_600_">
			
				<rect id="XMLID_80_" x="246.1" y="398.5" transform="matrix(0.9993 3.852799e-002 -3.852799e-002 0.9993 15.6005 -9.2338)" class="st37" width="2.6" height="3.3"/>
		</g>
		<g id="XMLID_598_">
			
				<rect id="XMLID_79_" x="248.7" y="398.5" transform="matrix(0.9993 3.623824e-002 -3.623824e-002 0.9993 14.6666 -8.7665)" class="st38" width="1" height="3.3"/>
		</g>
		<g id="XMLID_596_">
			<circle id="XMLID_78_" class="st14" cx="255" cy="413" r="2.5"/>
		</g>
		<g id="XMLID_594_">
			<path id="XMLID_77_" class="st39" d="M256.7,413c0-0.9-0.7-1.7-1.6-1.7c-0.6,0-1,0.2-1.4,0.6c0.3-0.2,0.7-0.3,1.1-0.3
				c0.9,0,1.6,0.8,1.6,1.7c0,0.4-0.1,0.7-0.3,1C256.4,414,256.6,413.6,256.7,413z"/>
		</g>
		<g id="XMLID_592_">
			<path id="XMLID_76_" class="st40" d="M254.8,411.6c-0.4,0-0.8,0.1-1.1,0.3c-0.2,0.3-0.3,0.6-0.3,1c0,0.9,0.7,1.7,1.6,1.7
				c0.4,0,0.8-0.1,1.1-0.3c0.2-0.3,0.3-0.6,0.3-1C256.4,412.4,255.7,411.7,254.8,411.6z"/>
		</g>
		<g id="XMLID_590_">
			<polygon id="XMLID_75_" class="st41" points="256.8,422.1 253.3,421.9 253.2,422.4 256.3,422.5 256.1,429 256.5,429 			"/>
		</g>
		<g id="XMLID_588_">
			
				<rect id="XMLID_74_" x="251.4" y="424.2" transform="matrix(3.797955e-002 -0.9993 0.9993 3.797955e-002 -180.4145 663.9863)" class="st42" width="6.4" height="3.1"/>
		</g>
		<g id="XMLID_586_">
			<polygon id="XMLID_73_" class="st39" points="231.3,418.6 231.3,418.1 226.9,417.9 226.7,422.6 227.2,422.6 227.4,418.5 			"/>
		</g>
		<g id="XMLID_584_">
			<polygon id="XMLID_72_" class="st39" points="236.6,418.8 236.6,418.3 232.2,418.1 232,422.8 232.5,422.8 232.7,418.7 			"/>
		</g>
		<g id="XMLID_582_">
			<polygon id="XMLID_71_" class="st39" points="241.8,419 241.8,418.5 237.4,418.3 237.2,423 237.8,423 237.9,418.9 			"/>
		</g>
		<g id="XMLID_580_">
			
				<rect id="XMLID_70_" x="227.3" y="418.6" transform="matrix(0.9993 3.794781e-002 -3.794781e-002 0.9993 16.127 -8.3973)" class="st40" width="3.9" height="4.1"/>
		</g>
		<g id="XMLID_578_">
			
				<rect id="XMLID_69_" x="232.6" y="418.8" transform="matrix(0.9993 3.807708e-002 -3.807708e-002 0.9993 16.1939 -8.6252)" class="st40" width="3.9" height="4.1"/>
		</g>
		<g id="XMLID_576_">
			
				<rect id="XMLID_68_" x="237.9" y="419" transform="matrix(0.9993 3.769664e-002 -3.769664e-002 0.9993 16.0416 -8.7403)" class="st40" width="3.9" height="4.1"/>
		</g>
		<g id="XMLID_574_">
			<polygon id="XMLID_67_" class="st43" points="253.5,430.1 253.5,429.5 252.9,429.5 253,428.8 252.3,428.8 252.2,430.7 
				254.1,430.8 254.1,430.1 			"/>
		</g>
		<g id="XMLID_572_">
			<polygon id="XMLID_66_" class="st44" points="257.6,429.6 256.9,429.6 253.5,429.5 253.5,430.1 254.1,430.1 257.5,430.3 			"/>
		</g>
		<g id="XMLID_570_">
			<polygon id="XMLID_65_" class="st37" points="257,429 253,428.8 252.9,429.5 253.5,429.5 256.9,429.6 			"/>
		</g>
		<g id="XMLID_568_">
			<polygon id="XMLID_64_" class="st37" points="254.1,430.1 254.1,430.8 258.1,431 258.1,430.3 257.5,430.3 			"/>
		</g>
		<g id="XMLID_566_">
			
				<rect id="XMLID_63_" x="228.8" y="417.9" transform="matrix(0.9993 3.645979e-002 -3.645979e-002 0.9993 15.4774 -8.0704)" class="st14" width="0.4" height="4.8"/>
		</g>
		<g id="XMLID_564_">
			
				<rect id="XMLID_62_" x="228.8" y="417.9" transform="matrix(-3.540277e-002 0.9994 -0.9994 -3.540277e-002 657.1923 206.3395)" class="st14" width="0.4" height="4.8"/>
		</g>
		<g id="XMLID_562_">
			
				<rect id="XMLID_61_" x="234.1" y="418.1" transform="matrix(0.9992 3.972909e-002 -3.972909e-002 0.9992 16.8923 -8.9757)" class="st14" width="0.4" height="4.8"/>
		</g>
		<g id="XMLID_560_">
			
				<rect id="XMLID_60_" x="234.1" y="418.1" transform="matrix(-3.931975e-002 0.9992 -0.9992 -3.931975e-002 663.6979 202.968)" class="st14" width="0.4" height="4.8"/>
		</g>
		<g id="XMLID_558_">
			
				<rect id="XMLID_59_" x="239.3" y="418.3" transform="matrix(0.9992 3.993921e-002 -3.993921e-002 0.9992 16.9947 -9.2316)" class="st14" width="0.4" height="4.8"/>
		</g>
		<g id="XMLID_556_">
			
				<rect id="XMLID_58_" x="239.3" y="418.3" transform="matrix(-3.871944e-002 0.9993 -0.9993 -3.871944e-002 669.2336 197.6545)" class="st14" width="0.4" height="4.8"/>
		</g>
		<g id="XMLID_554_">
			<path id="XMLID_57_" class="st45" d="M254.1,425.1c0,0.1,0.1,0.1,0.1,0.2c0,0.2-0.2,0.4-0.4,0.4c-0.1,0-0.2,0-0.2-0.1
				c0.1,0.1,0.2,0.2,0.3,0.2c0.2,0,0.4-0.2,0.4-0.4C254.3,425.3,254.2,425.2,254.1,425.1z"/>
		</g>
		<g id="XMLID_552_">
			<path id="XMLID_56_" class="st46" d="M254.2,425.3c0-0.1,0-0.2-0.1-0.2c-0.1,0-0.1-0.1-0.2-0.1c-0.2,0-0.4,0.2-0.4,0.4
				c0,0.1,0,0.2,0.1,0.2c0.1,0,0.1,0.1,0.2,0.1C254,425.7,254.2,425.5,254.2,425.3z"/>
		</g>
		<g id="XMLID_547_">
			<g id="XMLID_550_">
				<path id="XMLID_55_" class="st47" d="M255.8,419.4c0-0.3-0.2-0.6-0.5-0.6l-0.8,0c-0.3,0-0.6,0.2-0.6,0.5c0,0.1,0,0.2,0.1,0.3
					l1.8,0.1C255.8,419.5,255.8,419.5,255.8,419.4z"/>
			</g>
			<g id="XMLID_548_">
				<path id="XMLID_54_" class="st48" d="M253.9,419.5c0.1,0.2,0.3,0.3,0.5,0.3l0.8,0c0.2,0,0.4-0.1,0.5-0.3L253.9,419.5z"/>
			</g>
		</g>
		<g id="XMLID_545_">
			
				<rect id="XMLID_53_" x="254.7" y="417.7" transform="matrix(0.9993 3.661018e-002 -3.661018e-002 0.9993 15.4822 -9.0518)" class="st14" width="0.5" height="1"/>
		</g>
		<g id="XMLID_543_">
			
				<rect id="XMLID_52_" x="246.1" y="399.2" transform="matrix(0.9993 3.660283e-002 -3.660283e-002 0.9993 14.7867 -8.7645)" class="st38" width="1.3" height="0.5"/>
		</g>
		<g id="XMLID_541_">
			
				<rect id="XMLID_51_" x="247.4" y="400.3" transform="matrix(0.9992 3.891412e-002 -3.891412e-002 0.9992 15.7771 -9.3472)" class="st38" width="1.3" height="0.5"/>
		</g>
		<g id="XMLID_536_">
			<g id="XMLID_539_">
				<path id="XMLID_50_" class="st38" d="M249.8,397.3l-3.6-0.1c-0.3,0-0.6,0.3-0.6,0.6c0,0.1,0,0.2,0,0.2l4.8-0.2
					C250.3,397.5,250.1,397.3,249.8,397.3z"/>
			</g>
			<g id="XMLID_537_">
				<path id="XMLID_49_" class="st43" d="M245.6,398c0.1,0.2,0.3,0.4,0.6,0.4l3.6,0.1c0.3,0,0.6-0.3,0.6-0.6c0-0.1,0-0.1,0-0.2
					L245.6,398z"/>
			</g>
		</g>
		<g id="XMLID_534_">
			<path id="XMLID_48_" class="st49" d="M236.8,403.8c0,0.3-0.3,0.6-0.6,0.6l-4.7-0.2c-0.3,0-0.6-0.3-0.6-0.6l0,0
				c0-0.3,0.3-0.6,0.6-0.6l4.7,0.2C236.6,403.1,236.8,403.4,236.8,403.8L236.8,403.8z"/>
		</g>
		<g id="XMLID_532_">
			<path id="XMLID_47_" class="st49" d="M247.4,407.4c0,0.3-0.3,0.6-0.6,0.6l-8.3-0.3c-0.3,0-0.6-0.3-0.6-0.6l0,0
				c0-0.3,0.3-0.6,0.6-0.6l8.3,0.3C247.2,406.8,247.4,407,247.4,407.4L247.4,407.4z"/>
		</g>
		<g id="XMLID_530_">
			<path id="XMLID_46_" class="st49" d="M240.4,403.9c0,0.3-0.3,0.6-0.6,0.6l-1,0c-0.3,0-0.6-0.3-0.6-0.6l0,0c0-0.3,0.3-0.6,0.6-0.6
				l1,0C240.2,403.3,240.5,403.5,240.4,403.9L240.4,403.9z"/>
		</g>
	</g>
	<g id="XMLID_435_">
		<g id="XMLID_527_">
			<polygon id="XMLID_45_" class="st30" points="227.5,426.5 227.9,414.1 227.1,414 203.3,413.1 202.8,426.9 226.6,427.8 
				227.4,427.9 227.4,427.9 			"/>
		</g>
		<g id="XMLID_525_">
			
				<rect id="XMLID_44_" x="206.7" y="416.7" transform="matrix(0.9993 3.788049e-002 -3.788049e-002 0.9993 16.0671 -7.8513)" class="st31" width="17.1" height="6.7"/>
		</g>
		<g id="XMLID_523_">
			
				<rect id="XMLID_43_" x="203.6" y="427.4" transform="matrix(0.9993 3.769719e-002 -3.769719e-002 0.9993 16.3011 -7.8037)" class="st32" width="23" height="1.9"/>
		</g>
		<g id="XMLID_521_">
			
				<rect id="XMLID_42_" x="226.6" y="428.1" transform="matrix(0.9993 3.788282e-002 -3.788282e-002 0.9993 16.4238 -8.5743)" class="st33" width="15.8" height="1.9"/>
		</g>
		<g id="XMLID_519_">
			<polygon id="XMLID_41_" class="st34" points="236.9,401.4 236.1,402.6 243.6,414.7 244.9,414.7 245,414.2 			"/>
		</g>
		<g id="XMLID_517_">
			<polygon id="XMLID_40_" class="st35" points="236.1,402.6 228,413.6 227.9,414.1 227.5,425.3 227.4,427.9 227.4,427.9 
				243.1,428.5 243.1,428.4 243.6,414.7 			"/>
		</g>
		<g id="XMLID_512_">
			<g id="XMLID_515_">
				<polygon id="XMLID_39_" class="st36" points="210.6,400.4 201.6,412.6 228,413.6 236.1,402.6 236.9,401.4 				"/>
			</g>
			<g id="XMLID_513_">
				<polygon id="XMLID_38_" class="st34" points="201.5,412.8 201.5,413.1 218.7,413.7 227.1,414 227.9,414.1 228,413.6 
					201.6,412.6 				"/>
			</g>
		</g>
		<g id="XMLID_510_">
			
				<rect id="XMLID_37_" x="206.4" y="416.4" transform="matrix(0.9993 3.776488e-002 -3.776488e-002 0.9993 16.0067 -7.8185)" class="st14" width="17.1" height="6.7"/>
		</g>
		<g id="XMLID_508_">
			<polygon id="XMLID_36_" class="st14" points="238.5,420.3 233,420.1 232.7,428.1 238.2,428.3 			"/>
		</g>
		<g id="XMLID_506_">
			
				<rect id="XMLID_35_" x="226.8" y="397.7" transform="matrix(0.9993 3.779206e-002 -3.779206e-002 0.9993 15.2572 -8.3334)" class="st37" width="2.6" height="3.3"/>
		</g>
		<g id="XMLID_504_">
			
				<rect id="XMLID_34_" x="229.3" y="397.8" transform="matrix(0.9993 3.812965e-002 -3.812965e-002 0.9993 15.3989 -8.4734)" class="st38" width="1" height="3.3"/>
		</g>
		<g id="XMLID_502_">
			<circle id="XMLID_33_" class="st14" cx="235.7" cy="412.2" r="2.5"/>
		</g>
		<g id="XMLID_500_">
			<path id="XMLID_32_" class="st39" d="M237.3,412.3c0-0.9-0.7-1.7-1.6-1.7c-0.6,0-1,0.2-1.4,0.6c0.3-0.2,0.7-0.3,1.1-0.3
				c0.9,0,1.6,0.8,1.6,1.7c0,0.4-0.1,0.7-0.3,1C237.1,413.3,237.3,412.8,237.3,412.3z"/>
		</g>
		<g id="XMLID_498_">
			<path id="XMLID_31_" class="st40" d="M235.4,410.9c-0.4,0-0.8,0.1-1.1,0.3c-0.2,0.3-0.3,0.6-0.3,1c0,0.9,0.7,1.7,1.6,1.7
				c0.4,0,0.8-0.1,1.1-0.3c0.2-0.3,0.3-0.6,0.3-1C237.1,411.7,236.4,410.9,235.4,410.9z"/>
		</g>
		<g id="XMLID_496_">
			<polygon id="XMLID_30_" class="st41" points="237.5,421.3 233.9,421.2 233.9,421.7 237,421.8 236.7,428.2 237.2,428.2 			"/>
		</g>
		<g id="XMLID_494_">
			
				<rect id="XMLID_29_" x="232.1" y="423.4" transform="matrix(3.739592e-002 -0.9993 0.9993 3.739592e-002 -198.131 644.2197)" class="st42" width="6.4" height="3.1"/>
		</g>
		<g id="XMLID_492_">
			<polygon id="XMLID_28_" class="st39" points="212,417.9 212,417.3 207.6,417.2 207.4,421.8 207.9,421.9 208.1,417.8 			"/>
		</g>
		<g id="XMLID_490_">
			<polygon id="XMLID_27_" class="st39" points="217.2,418.1 217.3,417.5 212.8,417.4 212.7,422 213.2,422.1 213.3,418 			"/>
		</g>
		<g id="XMLID_488_">
			<polygon id="XMLID_26_" class="st39" points="222.5,418.3 222.5,417.7 218.1,417.6 217.9,422.2 218.5,422.3 218.6,418.2 			"/>
		</g>
		<g id="XMLID_486_">
			
				<rect id="XMLID_25_" x="208" y="417.8" transform="matrix(0.9993 3.807624e-002 -3.807624e-002 0.9993 16.1399 -7.6896)" class="st40" width="3.9" height="4.1"/>
		</g>
		<g id="XMLID_484_">
			
				<rect id="XMLID_24_" x="213.3" y="418" transform="matrix(0.9993 3.760258e-002 -3.760258e-002 0.9993 15.9485 -7.7955)" class="st40" width="3.9" height="4.1"/>
		</g>
		<g id="XMLID_482_">
			
				<rect id="XMLID_23_" x="218.5" y="418.2" transform="matrix(0.9993 3.758605e-002 -3.758605e-002 0.9993 15.9526 -7.9899)" class="st40" width="3.9" height="4.1"/>
		</g>
		<g id="XMLID_480_">
			<polygon id="XMLID_22_" class="st43" points="234.2,429.4 234.2,428.7 233.6,428.7 233.6,428.1 232.9,428.1 232.9,430 
				234.8,430.1 234.8,429.4 			"/>
		</g>
		<g id="XMLID_478_">
			<polygon id="XMLID_21_" class="st44" points="238.2,428.9 237.6,428.9 234.2,428.7 234.2,429.4 234.8,429.4 238.2,429.5 			"/>
		</g>
		<g id="XMLID_476_">
			<polygon id="XMLID_20_" class="st37" points="237.6,428.2 233.6,428.1 233.6,428.7 234.2,428.7 237.6,428.9 			"/>
		</g>
		<g id="XMLID_474_">
			<polygon id="XMLID_19_" class="st37" points="234.8,429.4 234.8,430.1 238.8,430.2 238.8,429.5 238.2,429.5 			"/>
		</g>
		<g id="XMLID_472_">
			
				<rect id="XMLID_18_" x="209.5" y="417.2" transform="matrix(0.9994 3.554441e-002 -3.554441e-002 0.9994 15.0466 -7.1883)" class="st14" width="0.4" height="4.8"/>
		</g>
		<g id="XMLID_470_">
			
				<rect id="XMLID_17_" x="209.5" y="417.2" transform="matrix(-3.537221e-002 0.9994 -0.9994 -3.537221e-002 636.4436 224.868)" class="st14" width="0.4" height="4.8"/>
		</g>
		<g id="XMLID_468_">
			
				<rect id="XMLID_16_" x="214.8" y="417.4" transform="matrix(0.9994 3.506824e-002 -3.506824e-002 0.9994 14.8535 -7.2801)" class="st14" width="0.4" height="4.8"/>
		</g>
		<g id="XMLID_466_">
			
				<rect id="XMLID_15_" x="214.8" y="417.4" transform="matrix(-3.523259e-002 0.9994 -0.9994 -3.523259e-002 642.0639 219.7549)" class="st14" width="0.4" height="4.8"/>
		</g>
		<g id="XMLID_464_">
			
				<rect id="XMLID_14_" x="220" y="417.6" transform="matrix(0.9993 3.628960e-002 -3.628960e-002 0.9993 15.3863 -7.7153)" class="st14" width="0.4" height="4.8"/>
		</g>
		<g id="XMLID_462_">
			
				<rect id="XMLID_13_" x="220" y="417.6" transform="matrix(-3.939248e-002 0.9992 -0.9992 -3.939248e-002 648.5613 216.4827)" class="st14" width="0.4" height="4.8"/>
		</g>
		<g id="XMLID_460_">
			<path id="XMLID_12_" class="st45" d="M234.8,424.4c0,0.1,0.1,0.1,0.1,0.2c0,0.2-0.2,0.4-0.4,0.4c-0.1,0-0.2,0-0.2-0.1
				c0.1,0.1,0.2,0.2,0.3,0.2c0.2,0,0.4-0.2,0.4-0.4C235,424.6,234.9,424.4,234.8,424.4z"/>
		</g>
		<g id="XMLID_458_">
			<path id="XMLID_11_" class="st46" d="M234.9,424.6c0-0.1,0-0.2-0.1-0.2c-0.1,0-0.1-0.1-0.2-0.1c-0.2,0-0.4,0.2-0.4,0.4
				c0,0.1,0,0.2,0.1,0.2c0.1,0,0.1,0.1,0.2,0.1C234.7,425,234.9,424.8,234.9,424.6z"/>
		</g>
		<g id="XMLID_453_">
			<g id="XMLID_456_">
				<path id="XMLID_10_" class="st47" d="M236.5,418.6c0-0.3-0.2-0.6-0.5-0.6l-0.8,0c-0.3,0-0.6,0.2-0.6,0.5c0,0.1,0,0.2,0.1,0.3
					l1.8,0.1C236.5,418.8,236.5,418.7,236.5,418.6z"/>
			</g>
			<g id="XMLID_454_">
				<path id="XMLID_9_" class="st48" d="M234.6,418.8c0.1,0.2,0.3,0.3,0.5,0.3l0.8,0c0.2,0,0.4-0.1,0.5-0.3L234.6,418.8z"/>
			</g>
		</g>
		<g id="XMLID_451_">
			<polygon id="XMLID_8_" class="st14" points="235.8,417 235.4,417 235.3,418 235.8,418 			"/>
		</g>
		<g id="XMLID_449_">
			
				<rect id="XMLID_7_" x="226.8" y="398.4" transform="matrix(0.9993 3.771045e-002 -3.771045e-002 0.9993 15.1977 -8.2934)" class="st38" width="1.3" height="0.5"/>
		</g>
		<g id="XMLID_447_">
			
				<rect id="XMLID_6_" x="228" y="399.6" transform="matrix(0.9994 3.597746e-002 -3.597746e-002 0.9994 14.5342 -7.9684)" class="st38" width="1.3" height="0.5"/>
		</g>
		<g id="XMLID_442_">
			<g id="XMLID_445_">
				<path id="XMLID_5_" class="st38" d="M230.5,396.6l-3.6-0.1c-0.3,0-0.6,0.2-0.6,0.6c0,0.1,0,0.2,0,0.2l4.8-0.2
					C231,396.8,230.8,396.6,230.5,396.6z"/>
			</g>
			<g id="XMLID_443_">
				<path id="XMLID_4_" class="st43" d="M226.3,397.3c0.1,0.2,0.3,0.4,0.6,0.4l3.6,0.1c0.3,0,0.6-0.3,0.6-0.6c0-0.1,0-0.1,0-0.2
					L226.3,397.3z"/>
			</g>
		</g>
		<g id="XMLID_440_">
			<path id="XMLID_3_" class="st49" d="M217.5,403c0,0.3-0.3,0.6-0.6,0.6l-4.7-0.2c-0.3,0-0.6-0.3-0.6-0.6l0,0
				c0-0.3,0.3-0.6,0.6-0.6l4.7,0.2C217.3,402.4,217.5,402.7,217.5,403L217.5,403z"/>
		</g>
		<g id="XMLID_438_">
			<path id="XMLID_2_" class="st49" d="M228.1,406.6c0,0.3-0.3,0.6-0.6,0.6l-8.3-0.3c-0.3,0-0.6-0.3-0.6-0.6l0,0
				c0-0.3,0.3-0.6,0.6-0.6l8.3,0.3C227.8,406,228.1,406.3,228.1,406.6L228.1,406.6z"/>
		</g>
		<g id="XMLID_436_">
			<path id="XMLID_1_" class="st49" d="M221.1,403.1c0,0.3-0.3,0.6-0.6,0.6l-1,0c-0.3,0-0.6-0.3-0.6-0.6l0,0c0-0.3,0.3-0.6,0.6-0.6
				l1,0C220.9,402.5,221.1,402.8,221.1,403.1L221.1,403.1z"/>
		</g>
	</g>
</g>
</svg>
