<?xml version="1.0" encoding="utf-8"?>
<!-- Generator: Adobe Illustrator 19.0.0, SVG Export Plug-In . SVG Version: 6.00 Build 0)  -->
<svg version="1.1" xmlns="http://www.w3.org/2000/svg" xmlns:xlink="http://www.w3.org/1999/xlink" x="0px" y="0px"
	 viewBox="0 0 792 612" style="enable-background:new 0 0 792 612;" xml:space="preserve">
<style type="text/css">
	.st0{fill:#31783B;}
	.st1{fill:#3C328D;}
	.st2{fill:#55AF5D;}
	.st3{fill:#FED600;}
	.st4{fill:#1B1642;}
	.st5{fill:#8CAEDC;}
	.st6{fill:none;stroke:#026A61;stroke-miterlimit:10;}
	.st7{fill:#026A61;}
	.st8{fill:#7A72B5;}
	.st9{fill:#E8644A;}
	.st10{fill:#14243D;}
	.st11{fill:#EFEFEF;}
	.st12{opacity:0.5;}
	.st13{fill:#4472B8;}
	.st14{opacity:0.5;fill:#A0AEC1;}
	.st15{fill:#1B3254;}
	.st16{fill:#0F1827;}
	.st17{opacity:0.4;fill:#7E98C2;}
	.st18{fill:none;stroke:#14243D;stroke-linejoin:round;stroke-miterlimit:10;}
	.st19{fill:#A4BFE4;}
	.st20{opacity:0.5;fill:#4472B8;}
	.st21{opacity:0.7;fill:#7E98C2;}
	.st22{fill:none;stroke:#1E3759;stroke-miterlimit:10;}
	.st23{fill:#2C4F86;}
	.st24{fill:#7EA3D6;}
	.st25{fill:#212121;}
	.st26{fill:#BDBDBD;}
	.st27{fill:#767677;}
	.st28{fill:none;stroke:#BDBDBD;stroke-miterlimit:10;}
	.st29{fill:#25426F;}
	.st30{fill:none;stroke:#1B1642;stroke-width:5;stroke-linecap:round;stroke-linejoin:round;stroke-miterlimit:10;}
	.st31{fill:none;stroke:#212121;stroke-width:4;stroke-linecap:round;stroke-miterlimit:10;}
</style>
<g id="Layer_1">
	<g>
		<g>
			<path id="XMLID_3_" class="st0" d="M167,473.4H60.9V185.6c0-16,12.9-28.9,28.9-28.9h48.4c16,0,28.9,12.9,28.9,28.9V473.4z"/>
			<rect id="XMLID_90_" x="113.9" y="156.7" class="st1" width="25.6" height="18.8"/>
			<path id="XMLID_89_" class="st2" d="M192.6,473.4H86.5V185.6c0-16,12.9-28.9,28.9-28.9h48.4c16,0,28.9,12.9,28.9,28.9V473.4z"/>
			<polygon id="XMLID_88_" class="st3" points="134.4,198.3 150.6,198.3 138.8,221.7 154.1,221.7 132.2,263.9 137.8,232.9 
				124.9,232.9 			"/>
			<rect id="XMLID_87_" x="97.5" y="279.5" class="st4" width="84" height="66.2"/>
			<rect id="XMLID_86_" x="105" y="287.4" class="st5" width="39.8" height="50.4"/>
			<g>
				<rect id="XMLID_85_" x="116.8" y="302" class="st6" width="16.2" height="26.6"/>
				<rect id="XMLID_84_" x="119.8" y="307.2" class="st7" width="10.3" height="3.6"/>
				<rect id="XMLID_83_" x="119.8" y="312.4" class="st7" width="10.3" height="3.6"/>
				<rect id="XMLID_82_" x="119.8" y="317.6" class="st7" width="10.3" height="3.6"/>
				<rect id="XMLID_81_" x="119.8" y="322.8" class="st7" width="10.3" height="3.6"/>
				<rect id="XMLID_80_" x="121.7" y="296.5" class="st7" width="6.4" height="3"/>
			</g>
			<rect id="XMLID_79_" x="150" y="287.4" class="st8" width="6.6" height="6.6"/>
			<rect id="XMLID_78_" x="160.5" y="287.4" class="st8" width="6.6" height="6.6"/>
			<rect id="XMLID_77_" x="170.9" y="287.4" class="st8" width="6.6" height="6.6"/>
			<rect id="XMLID_76_" x="150" y="298.7" class="st8" width="6.6" height="6.6"/>
			<rect id="XMLID_75_" x="160.5" y="298.7" class="st8" width="6.6" height="6.6"/>
			<rect id="XMLID_74_" x="170.9" y="298.7" class="st8" width="6.6" height="6.6"/>
			<rect id="XMLID_73_" x="150" y="310.1" class="st8" width="6.6" height="6.6"/>
			<rect id="XMLID_72_" x="160.5" y="310.1" class="st8" width="6.6" height="6.6"/>
			<rect id="XMLID_71_" x="170.9" y="310.1" class="st8" width="6.6" height="6.6"/>
			<rect id="XMLID_70_" x="150" y="321.4" class="st8" width="6.6" height="6.6"/>
			<rect id="XMLID_69_" x="160.5" y="321.4" class="st8" width="6.6" height="6.6"/>
			<rect id="XMLID_68_" x="170.9" y="321.4" class="st8" width="6.6" height="6.6"/>
			<rect id="XMLID_67_" x="122.7" y="354.1" class="st4" width="33.7" height="33.6"/>
			<g>
				<path id="XMLID_66_" class="st9" d="M297.4,275.6c0,0-29.3,25.6-32.1,57.9c-2.8,32.2-2.8,32.2-2.8,32.2l9.5-3.7
					c0,0,25-16.1,25.5-18c0.5-2,7.1-37.9,7.1-38.5c0-0.7,4.3-19.5,4.3-19.5l-9-7L297.4,275.6z"/>
				<polygon id="XMLID_65_" class="st10" points="731,444 368.7,441.8 270.6,441.2 256.2,425.5 262.4,399.6 295.5,375.9 
					712.3,375.9 744.5,409.9 				"/>
				<path class="st11" d="M757.4,383.9l-15.5-21.2c-5-6.8-12-11.9-20-14.5l-69.6-23l-90.2-45.1c-20.1-10.1-41.9-16.3-64.3-18.4
					c-96.5-8.9-204,9-204,9l5.9,8.2c-32.6,29.4-27.9,83-27.9,83l-9.5,3.7c-4.2,1.7-8,4.3-11.1,7.7c-3,3.3-4.6,7.5-4.6,11.9v33.1
					c0,3,1.2,5.9,3.4,8L262,438c2.1,2,4.8,3.1,7.7,3.2l0.9,0c-0.7-3.3-1.1-6.7-1.1-10.2c0-27.7,22.5-50.1,50.2-50.1
					c27.7,0,50.2,22.4,50.2,50.1c0,3.7-0.4,7.4-1.2,10.9l265.3,1.7c-1-4-1.6-8.2-1.6-12.5c0-27.7,22.5-50.1,50.2-50.1
					c27.7,0,50.2,22.4,50.2,50.1c0,4.5-0.6,8.9-1.8,13.1l23.2,0.1c6,0,11-4.8,11-10.9v-25.6C765.3,399.1,762.5,390.8,757.4,383.9z
					 M430.9,322.4l-92.6-2.7l-1.4-16.8c0-6.4,0.2-9.7,3.3-13.5c2.9-3.5,7.1-5.7,11.7-5.9l76.6-4.3c5.4-0.3,10.1,3.7,10.6,9.1
					l2.2,23.2C441.7,317.5,436.9,322.6,430.9,322.4z M575.4,333.5l-100-5.6l-7.4-37.8c-1.1-5.4,3.4-10.4,9-9.8l46.3,4.8
					c12.6,1.3,24.8,5.2,35.9,11.4l20.4,11.5C579.6,321.5,575.4,333.5,575.4,333.5z"/>
				<g class="st12">
					<path id="XMLID_61_" class="st13" d="M254.7,430.9l7.3,7.1c2.1,2,4.8,3.1,7.7,3.2l0.9,0c-0.7-3.3-1.1-6.7-1.1-10.2
						c0,0,0-0.1,0-0.1L254.7,430.9z"/>
					<path id="XMLID_60_" class="st13" d="M764.2,438l-31.8-0.7c-0.3,2.3-0.7,4.5-1.3,6.7l23.2,0.1
						C758.7,444.2,762.4,441.7,764.2,438z"/>
					<path id="XMLID_59_" class="st13" d="M634,443.4c-0.7-2.7-1.1-5.4-1.4-8.2l-241.8-5.1l-20.9,0.1c0,0.2,0,0.4,0,0.6
						c0,3.7-0.4,7.4-1.2,10.9L634,443.4z"/>
				</g>
				<polygon id="XMLID_58_" class="st13" points="618,347.2 635.7,347.8 648.1,338.4 639.7,333.8 630.2,340.9 616.5,340.3 				"/>
				<polygon id="XMLID_57_" class="st13" points="327.2,335.1 618,347.2 616.5,340.3 326.1,327.9 				"/>
				<path id="XMLID_56_" class="st13" d="M388.9,415.7l226.1,4.7l-7.5-7l-201.7-4.7C405.7,408.6,391.9,407.6,388.9,415.7z"/>
				<path id="XMLID_55_" class="st14" d="M461.1,356.5h-68.5c-5.7,0-10.2,5-9.5,10.7l5.8,48.4c3-8.1,16.9-7,16.9-7l201.7,4.7l7.5,7
					l3.5-1.6l2-60.3L461.1,356.5z"/>
				<path class="st15" d="M554.9,285.7c-54.3-22.9-166.5-14.7-204.5-11.1c-11,1-20.6,8.5-23.9,19.1c-5.2,16.8-0.5,34.4-0.5,34.4
					l304.2,12.9l9.4-7L554.9,285.7z M430.9,322.4l-92.6-2.7l-1.4-16.8c0-6.4,0.2-9.7,3.3-13.5c2.9-3.5,7.1-5.7,11.7-5.9l76.6-4.3
					c5.4-0.3,10.1,3.7,10.6,9.1l2.2,23.2C441.7,317.5,436.9,322.6,430.9,322.4z M575.4,333.5l-100-5.6l-7.4-37.8
					c-1.1-5.4,3.4-10.4,9-9.8l46.3,4.8c12.6,1.3,24.8,5.2,35.9,11.4l20.4,11.5C579.6,321.5,575.4,333.5,575.4,333.5z"/>
				<path id="XMLID_51_" class="st16" d="M590.6,321.7c-3.1-1.7-6.3-3.2-9.7-4c-0.6-0.2-5.2-0.8-5.4-1.1c0,0,4.6,9.7-1.4,18h-12.8
					v4.1l39.4,1.4c0,0,6.3-5.3,6.6-5.5c0.5-0.4-9.3-8.1-10.3-8.8C595,324.4,592.9,323,590.6,321.7z"/>
				<path id="XMLID_50_" class="st16" d="M567,311.5c-2-0.7-4.3,0.4-5,2.4l-8.5,24.2l8.2,0.3l7.7-21.9
					C570.1,314.4,569,312.2,567,311.5z"/>
				<path id="XMLID_49_" class="st16" d="M485.8,300.8c-1-4.6-5.5-7.5-10.1-6.5c-4.6,1-7.5,5.5-6.5,10.1l6.5,30l17.6,0.7
					L485.8,300.8z"/>
				<path id="XMLID_48_" class="st16" d="M344.9,302.8c-1-4.6-5.5-7.5-10.1-6.5s-7.5,5.5-6.5,10.1l4.8,21.9l17.6,0.7L344.9,302.8z"
					/>
				<path id="XMLID_47_" class="st17" d="M326.1,327.9c0,0-4.8-17.6,0.5-34.4c3.3-10.6,12.8-18,23.9-19.1
					c38-3.6,150.2-11.8,204.5,11.1l84.8,48.2l-9.4,7L326.1,327.9z"/>
				<path id="XMLID_46_" class="st18" d="M326.1,327.9l2.5,15.3c0.9,5.5,3.2,10.8,6.6,15.2l55.6,71.7l224.5,4.7l3.1-16.1l2-60.3
					l-3.9-18.2"/>
				<polyline id="XMLID_45_" class="st18" points="456.7,333.5 461.1,356.5 463.8,417.6 461.9,431.6 				"/>
				<path id="XMLID_44_" class="st10" d="M741.9,362.7c-4-5.5-9.3-9.8-15.4-12.7h-17c-0.9,0-1.7,0.4-2.2,1.2l-2,2.9
					c-0.8,1.2-0.5,2.8,0.7,3.6l23.9,15.7c2.5,1.6,5.4,2.5,8.3,2.5h13.3L741.9,362.7z"/>
				<line id="XMLID_43_" class="st18" x1="635.1" y1="331.2" x2="643.3" y2="320.7"/>
				<path id="XMLID_42_" class="st10" d="M598.8,310.6c0,0,2.8,17.5-2.4,28.9l33.9,1.4l9.4-7L598.8,310.6z"/>
				<path id="XMLID_41_" class="st19" d="M734,367.2c-1.8,2.7-7.9,1.7-13.5-2.2c-5.6-3.9-8.7-9.2-6.8-11.8c1.8-2.7,7.9-1.7,13.5,2.2
					C732.8,359.2,735.9,364.5,734,367.2z"/>
				<ellipse id="XMLID_40_" class="st19" cx="740.1" cy="370.1" rx="4.3" ry="4.3"/>
				<path id="XMLID_39_" class="st20" d="M319.7,371.1c-11.1,1.3-22,3.5-31.6,9.6c-12.2,7.6-20.2,19.8-23.3,33.8l-8.1-28.2
					c-1.4-4.9,1-10.2,5.7-12.3l14.7-6.5c0,0,38.7-16,59.7,2.1C331.2,370.1,325.4,370.4,319.7,371.1z"/>
				<path id="XMLID_38_" class="st20" d="M632.3,398.6c0,0,20-24.4,46.7-24.1c26.7,0.3,42.4,14,42.4,14s-13.5-24.6-44.6-22.6
					C645.8,367.8,632.3,398.6,632.3,398.6z"/>
				<path id="XMLID_37_" class="st21" d="M554.9,285.7c-46-19.4-133.6-16.5-182.4-13c26.5,12.8,71.9,25,124.3,32.1
					c38.1,5.2,73.4,6.8,100.9,5.2L554.9,285.7z"/>
				<path id="XMLID_36_" class="st22" d="M326.1,327.9c0,0-4.8-17.6,0.5-34.4c3.3-10.6,12.8-18,23.9-19.1
					c38-3.6,150.2-11.8,204.5,11.1l84.8,48.2l-9.4,7L326.1,327.9z"/>
				<polygon id="XMLID_35_" class="st10" points="445,270.1 456.7,333.5 471.3,334.1 458.2,270.4 				"/>
				<g>
					
						<ellipse id="XMLID_34_" transform="matrix(1 9.675669e-003 -9.675669e-003 1 3.4024 -4.6633)" class="st23" cx="483.6" cy="349.3" rx="10.9" ry="7"/>
					<path id="XMLID_2_" class="st24" d="M496.6,351.8l-25.9-0.3c-0.8,0-1.4-0.6-1.4-1.3l0-2.2c0-0.7,0.6-1.3,1.4-1.3l25.9,0.3
						c0.8,0,1.4,0.6,1.4,1.3l0,2.2C498,351.3,497.3,351.8,496.6,351.8z"/>
				</g>
				<g>
					
						<ellipse id="XMLID_33_" transform="matrix(1 9.675669e-003 -9.675669e-003 1 3.3582 -3.406)" class="st23" cx="353.7" cy="345.4" rx="10.9" ry="7"/>
					<path id="XMLID_1_" class="st24" d="M366.3,347.9l-25.3-0.2c-0.9,0-1.7-0.8-1.7-1.7l0-1.5c0-0.9,0.8-1.7,1.7-1.6l25.3,0.2
						c0.9,0,1.7,0.8,1.7,1.7l0,1.5C368,347.2,367.2,347.9,366.3,347.9z"/>
				</g>
				<g>
					<ellipse id="XMLID_32_" class="st25" cx="682.6" cy="430.9" rx="42.6" ry="42.5"/>
					<ellipse id="XMLID_31_" class="st26" cx="682.6" cy="430.9" rx="31.8" ry="31.7"/>
					<g>
						<g>
							<rect id="XMLID_30_" x="678.1" y="398.6" class="st25" width="9" height="29.2"/>
							<rect id="XMLID_29_" x="678.1" y="433.4" class="st25" width="9" height="29.2"/>
						</g>
						<g>
							<polygon id="XMLID_28_" class="st25" points="683.8,425.5 677.4,431.8 656.7,411.1 663.1,404.8 							"/>
							<polygon id="XMLID_27_" class="st25" points="708.5,450.1 702.1,456.4 681.4,435.8 687.7,429.4 							"/>
						</g>
						<g>
							<rect id="XMLID_26_" x="650.5" y="426.1" class="st25" width="29.3" height="8.9"/>
							<rect id="XMLID_25_" x="685.4" y="426.1" class="st25" width="29.3" height="8.9"/>
						</g>
						<g>
							<polygon id="XMLID_24_" class="st25" points="677.4,429.4 683.8,435.8 663.1,456.4 656.7,450.1 							"/>
							<polygon id="XMLID_23_" class="st25" points="702.1,404.8 708.5,411.1 687.7,431.8 681.4,425.5 							"/>
						</g>
					</g>
					<ellipse id="XMLID_22_" class="st27" cx="682.6" cy="430.9" rx="8.1" ry="8.1"/>
					<ellipse id="XMLID_21_" class="st26" cx="682.6" cy="430.9" rx="3.9" ry="3.9"/>
					<ellipse id="XMLID_20_" class="st28" cx="682.6" cy="430.9" rx="31.8" ry="31.7"/>
				</g>
				<g>
					<ellipse id="XMLID_19_" class="st25" cx="319.7" cy="430.9" rx="42.6" ry="42.5"/>
					<ellipse id="XMLID_18_" class="st26" cx="319.7" cy="430.9" rx="31.8" ry="31.7"/>
					<g>
						<g>
							<rect id="XMLID_17_" x="315.2" y="398.6" class="st25" width="9" height="29.2"/>
							<rect id="XMLID_16_" x="315.2" y="433.4" class="st25" width="9" height="29.2"/>
						</g>
						<g>
							<polygon id="XMLID_15_" class="st25" points="320.9,425.5 314.6,431.8 293.8,411.1 300.2,404.8 							"/>
							<polygon id="XMLID_14_" class="st25" points="345.6,450.1 339.3,456.4 318.5,435.8 324.9,429.4 							"/>
						</g>
						<g>
							<rect id="XMLID_13_" x="287.6" y="426.1" class="st25" width="29.3" height="8.9"/>
							<rect id="XMLID_12_" x="322.5" y="426.1" class="st25" width="29.3" height="8.9"/>
						</g>
						<g>
							<polygon id="XMLID_11_" class="st25" points="314.6,429.4 320.9,435.8 300.2,456.4 293.8,450.1 							"/>
							<polygon id="XMLID_10_" class="st25" points="339.3,404.8 345.6,411.1 324.9,431.8 318.5,425.5 							"/>
						</g>
					</g>
					<ellipse id="XMLID_9_" class="st27" cx="319.7" cy="430.9" rx="8.1" ry="8.1"/>
					<ellipse id="XMLID_8_" class="st26" cx="319.7" cy="430.9" rx="3.9" ry="3.9"/>
					<ellipse id="XMLID_7_" class="st28" cx="319.7" cy="430.9" rx="31.8" ry="31.7"/>
				</g>
			</g>
			<ellipse id="XMLID_6_" class="st29" cx="299.6" cy="341" rx="12" ry="12"/>
			<path id="XMLID_5_" class="st30" d="M139.5,370.9v47.8c0,22.8,18.5,41.3,41.4,41.3h0c22.9,0,41.4-18.5,41.4-41.3v-57.1
				c0-11.4,9.3-20.7,20.8-20.7h56.5"/>
		</g>
		<line id="XMLID_4_" class="st31" x1="49.1" y1="473.4" x2="777" y2="473.4"/>
	</g>
</g>
<g id="Layer_2">
</g>
</svg>
