<svg version="1.1" width="35.7" height="48.7" viewBox="0 0 35.7 48.7" xmlns="http://www.w3.org/2000/svg" xmlns:xlink="http://www.w3.org/1999/xlink" overflow="hidden"><defs></defs><path d=" M 17.9 48.7 C 11.6 45.9 0 32 0 17.9 C 0 8 8 0 17.9 0 C 27.8 0 35.8 8 35.8 17.9 C 35.7 32 24.1 45.9 17.9 48.7 Z" id="XMLID_30_" fill="#B74826" fill-rule="evenodd" clip-rule="evenodd"/><path d=" M 17.9 0 C 27.8 0 35.8 8 35.8 17.9 C 35.8 32.1 24.2 46 17.9 48.8 L 17.9 0 Z" id="XMLID_29_" fill="#EC5D24" fill-rule="evenodd" clip-rule="evenodd"/><path d=" M 17.9 32.5 C 26 32.5 32.6 25.9 32.6 17.8 C 32.6 9.7 26 3.1 17.9 3.1 C 9.8 3.1 3.2 9.8 3.2 17.9 C 3.2 25.9 9.8 32.5 17.9 32.5 Z" id="XMLID_28_" fill="#FFFFFF" fill-rule="evenodd" clip-rule="evenodd"/><g id="XMLID_23_"><path d=" M 15.1 26.1 L 17.9 17.6 L 17.9 22.1 Z" id="XMLID_27_" fill="#E9CF21"/><path d=" M 17.9 13.3 L 17.4 14.7 L 17.9 14.6 L 17.9 16.8 L 12.5 17 L 17.9 10.2 Z" id="XMLID_26_" fill="#E9CF21"/><path d=" M 19.6 8.1 L 17.9 13.3 L 17.9 10.2 Z" id="XMLID_25_" fill="#DCBD26"/><path d=" M 23.2 14.4 L 17.9 22.1 L 17.9 17.6 L 18.1 16.8 L 17.9 16.8 L 17.9 14.7 Z" id="XMLID_24_" fill="#DCBD26"/></g></svg>